G04 #@! TF.GenerationSoftware,KiCad,Pcbnew,(5.0.2)-1*
G04 #@! TF.CreationDate,2019-03-28T21:57:09+05:00*
G04 #@! TF.ProjectId,LM555Blinky,4c4d3535-3542-46c6-996e-6b792e6b6963,rev?*
G04 #@! TF.SameCoordinates,Original*
G04 #@! TF.FileFunction,Copper,L1,Top*
G04 #@! TF.FilePolarity,Positive*
%FSLAX46Y46*%
G04 Gerber Fmt 4.6, Leading zero omitted, Abs format (unit mm)*
G04 Created by KiCad (PCBNEW (5.0.2)-1) date 3/28/2019 9:57:09 PM*
%MOMM*%
%LPD*%
G01*
G04 APERTURE LIST*
G04 #@! TA.AperFunction,NonConductor*
%ADD10C,0.150000*%
G04 #@! TD*
G04 #@! TA.AperFunction,ComponentPad*
%ADD11C,1.600000*%
G04 #@! TD*
G04 #@! TA.AperFunction,ComponentPad*
%ADD12O,1.600000X1.600000*%
G04 #@! TD*
G04 #@! TA.AperFunction,ComponentPad*
%ADD13R,2.000000X2.000000*%
G04 #@! TD*
G04 #@! TA.AperFunction,ComponentPad*
%ADD14C,2.000000*%
G04 #@! TD*
G04 #@! TA.AperFunction,ComponentPad*
%ADD15C,1.800000*%
G04 #@! TD*
G04 #@! TA.AperFunction,ComponentPad*
%ADD16R,1.800000X1.800000*%
G04 #@! TD*
G04 #@! TA.AperFunction,ComponentPad*
%ADD17R,1.600000X1.600000*%
G04 #@! TD*
G04 #@! TA.AperFunction,ComponentPad*
%ADD18R,1.700000X1.700000*%
G04 #@! TD*
G04 #@! TA.AperFunction,ComponentPad*
%ADD19O,1.700000X1.700000*%
G04 #@! TD*
G04 #@! TA.AperFunction,Conductor*
%ADD20C,0.250000*%
G04 #@! TD*
G04 #@! TA.AperFunction,Conductor*
%ADD21C,0.254000*%
G04 #@! TD*
G04 APERTURE END LIST*
D10*
X210820000Y-63500000D02*
G75*
G02X215900000Y-68580000I0J-5080000D01*
G01*
X165100000Y-67310000D02*
G75*
G02X170028324Y-63462081I4928324J-1232081D01*
G01*
X215865426Y-110481356D02*
G75*
G02X210820000Y-114300000I-4893750J1223437D01*
G01*
X168910000Y-114300000D02*
G75*
G02X165100000Y-110490000I0J3810000D01*
G01*
X165100000Y-110490000D02*
X165100000Y-67310000D01*
X168910000Y-114300000D02*
X210820000Y-114300000D01*
X215900000Y-67310000D02*
X215900000Y-110490000D01*
X170180000Y-63500000D02*
X210820000Y-63500000D01*
D11*
G04 #@! TO.P,C2,1*
G04 #@! TO.N,Net-(C2-Pad1)*
X194310000Y-100965000D03*
D12*
G04 #@! TO.P,C2,2*
G04 #@! TO.N,GND*
X194310000Y-108465000D03*
G04 #@! TD*
D13*
G04 #@! TO.P,C1,1*
G04 #@! TO.N,/TRIG*
X186690000Y-104775000D03*
D14*
G04 #@! TO.P,C1,2*
G04 #@! TO.N,GND*
X182890000Y-104775000D03*
G04 #@! TD*
D15*
G04 #@! TO.P,D2,2*
G04 #@! TO.N,Net-(D2-Pad2)*
X196640000Y-69200000D03*
D16*
G04 #@! TO.P,D2,1*
G04 #@! TO.N,GND*
X194100000Y-69200000D03*
G04 #@! TD*
G04 #@! TO.P,D1,1*
G04 #@! TO.N,/BLINK*
X186200000Y-69150000D03*
D15*
G04 #@! TO.P,D1,2*
G04 #@! TO.N,Net-(D1-Pad2)*
X188740000Y-69150000D03*
G04 #@! TD*
D17*
G04 #@! TO.P,U1,1*
G04 #@! TO.N,GND*
X186690000Y-83820000D03*
D12*
G04 #@! TO.P,U1,5*
G04 #@! TO.N,Net-(C2-Pad1)*
X194310000Y-91440000D03*
G04 #@! TO.P,U1,2*
G04 #@! TO.N,/TRIG*
X186690000Y-86360000D03*
G04 #@! TO.P,U1,6*
X194310000Y-88900000D03*
G04 #@! TO.P,U1,3*
G04 #@! TO.N,/BLINK*
X186690000Y-88900000D03*
G04 #@! TO.P,U1,7*
G04 #@! TO.N,Net-(R1-Pad2)*
X194310000Y-86360000D03*
G04 #@! TO.P,U1,4*
G04 #@! TO.N,Net-(U1-Pad4)*
X186690000Y-91440000D03*
G04 #@! TO.P,U1,8*
G04 #@! TO.N,VCC*
X194310000Y-83820000D03*
G04 #@! TD*
G04 #@! TO.P,R4,2*
G04 #@! TO.N,Net-(D2-Pad2)*
X179650000Y-66140000D03*
D11*
G04 #@! TO.P,R4,1*
G04 #@! TO.N,/BLINK*
X179650000Y-76300000D03*
G04 #@! TD*
G04 #@! TO.P,R3,1*
G04 #@! TO.N,VCC*
X209100000Y-90450000D03*
D12*
G04 #@! TO.P,R3,2*
G04 #@! TO.N,Net-(D1-Pad2)*
X198940000Y-90450000D03*
G04 #@! TD*
G04 #@! TO.P,R2,2*
G04 #@! TO.N,/TRIG*
X209260000Y-85700000D03*
D11*
G04 #@! TO.P,R2,1*
G04 #@! TO.N,Net-(R1-Pad2)*
X199100000Y-85700000D03*
G04 #@! TD*
G04 #@! TO.P,R1,1*
G04 #@! TO.N,VCC*
X202500000Y-66000000D03*
D12*
G04 #@! TO.P,R1,2*
G04 #@! TO.N,Net-(R1-Pad2)*
X202500000Y-76160000D03*
G04 #@! TD*
D18*
G04 #@! TO.P,J1,1*
G04 #@! TO.N,VCC*
X176300000Y-89150000D03*
D19*
G04 #@! TO.P,J1,2*
G04 #@! TO.N,GND*
X176300000Y-86610000D03*
G04 #@! TD*
D20*
G04 #@! TO.N,VCC*
X209050000Y-66000000D02*
X202500000Y-66000000D01*
X197580000Y-80550000D02*
X199775002Y-80550000D01*
X209550000Y-66500000D02*
X209050000Y-66000000D01*
X194310000Y-83820000D02*
X197580000Y-80550000D01*
X199775002Y-80550000D02*
X199875002Y-80650000D01*
X199875002Y-80650000D02*
X208950000Y-80650000D01*
X208950000Y-80650000D02*
X209550000Y-80050000D01*
X210231370Y-90450000D02*
X210331370Y-90550000D01*
X209100000Y-90450000D02*
X210231370Y-90450000D01*
X210331370Y-90550000D02*
X211850000Y-90550000D01*
X211850000Y-80750000D02*
X209550000Y-78450000D01*
X211850000Y-90550000D02*
X211850000Y-80750000D01*
X209550000Y-80050000D02*
X209550000Y-78450000D01*
X209550000Y-78450000D02*
X209550000Y-66500000D01*
X195441370Y-83820000D02*
X194310000Y-83820000D01*
X209045002Y-83820000D02*
X195441370Y-83820000D01*
X210385001Y-85159999D02*
X209045002Y-83820000D01*
X210385001Y-86555001D02*
X210385001Y-85159999D01*
X194850001Y-102090001D02*
X210385001Y-86555001D01*
X190883587Y-85234999D02*
X190883587Y-99203589D01*
X186149999Y-85234999D02*
X190883587Y-85234999D01*
X185564999Y-85819999D02*
X186149999Y-85234999D01*
X185564999Y-86900001D02*
X185564999Y-85819999D01*
X186149999Y-87485001D02*
X185564999Y-86900001D01*
X187178591Y-87485001D02*
X186149999Y-87485001D01*
X188199990Y-88506400D02*
X187178591Y-87485001D01*
X190883587Y-99203589D02*
X193769999Y-102090001D01*
X188199990Y-89350010D02*
X188199990Y-88506400D01*
X187524999Y-90025001D02*
X188199990Y-89350010D01*
X178275001Y-90025001D02*
X187524999Y-90025001D01*
X193769999Y-102090001D02*
X194850001Y-102090001D01*
X177400000Y-89150000D02*
X178275001Y-90025001D01*
X176300000Y-89150000D02*
X177400000Y-89150000D01*
G04 #@! TO.N,Net-(R1-Pad2)*
X198440000Y-86360000D02*
X199100000Y-85700000D01*
X194310000Y-86360000D02*
X198440000Y-86360000D01*
X201368630Y-76160000D02*
X202500000Y-76160000D01*
X200304998Y-76160000D02*
X201368630Y-76160000D01*
X193184999Y-83279999D02*
X200304998Y-76160000D01*
X193184999Y-84360001D02*
X193184999Y-83279999D01*
X194524998Y-85700000D02*
X193184999Y-84360001D01*
X199100000Y-85700000D02*
X194524998Y-85700000D01*
G04 #@! TO.N,/TRIG*
X206060000Y-88900000D02*
X194310000Y-88900000D01*
X209260000Y-85700000D02*
X206060000Y-88900000D01*
G04 #@! TO.N,Net-(D1-Pad2)*
X188740000Y-70422792D02*
X188740000Y-69150000D01*
X194059997Y-87774999D02*
X188740000Y-82455002D01*
X193769999Y-87774999D02*
X194059997Y-87774999D01*
X188740000Y-82455002D02*
X188740000Y-70422792D01*
X193184999Y-89440001D02*
X193184999Y-88359999D01*
X193769999Y-90025001D02*
X193184999Y-89440001D01*
X193184999Y-88359999D02*
X193769999Y-87774999D01*
X197383631Y-90025001D02*
X193769999Y-90025001D01*
X197808630Y-90450000D02*
X197383631Y-90025001D01*
X198940000Y-90450000D02*
X197808630Y-90450000D01*
G04 #@! TO.N,Net-(D2-Pad2)*
X180781370Y-66140000D02*
X179650000Y-66140000D01*
X194852792Y-66140000D02*
X180781370Y-66140000D01*
X196640000Y-67927208D02*
X194852792Y-66140000D01*
X196640000Y-69200000D02*
X196640000Y-67927208D01*
G04 #@! TO.N,/BLINK*
X179650000Y-81860000D02*
X186690000Y-88900000D01*
X179650000Y-76300000D02*
X179650000Y-81860000D01*
X186200000Y-69750000D02*
X186200000Y-69150000D01*
X179650000Y-76300000D02*
X186200000Y-69750000D01*
G04 #@! TO.N,GND*
X191674999Y-67924999D02*
X192950000Y-69200000D01*
X192950000Y-69200000D02*
X194100000Y-69200000D01*
X188151999Y-67924999D02*
X191674999Y-67924999D01*
X187514999Y-68561999D02*
X188151999Y-67924999D01*
X187514999Y-81945001D02*
X187514999Y-68561999D01*
X186690000Y-82770000D02*
X187514999Y-81945001D01*
X186690000Y-83820000D02*
X186690000Y-82770000D01*
G04 #@! TO.N,Net-(C2-Pad1)*
X194310000Y-100965000D02*
X194310000Y-91440000D01*
G04 #@! TO.N,/TRIG*
X186690000Y-103525000D02*
X188650000Y-101565000D01*
X186690000Y-104775000D02*
X186690000Y-103525000D01*
X188650000Y-88320000D02*
X186690000Y-86360000D01*
X188650000Y-101565000D02*
X188650000Y-88320000D01*
G04 #@! TD*
D21*
G04 #@! TO.N,GND*
G36*
X170110074Y-64210000D02*
X210788382Y-64210000D01*
X211593358Y-64281842D01*
X212342277Y-64486723D01*
X213043072Y-64820986D01*
X213673605Y-65274069D01*
X214213934Y-65831645D01*
X214646989Y-66476099D01*
X214959073Y-67187044D01*
X215141640Y-67947493D01*
X215190000Y-68606031D01*
X215190001Y-110262031D01*
X214921435Y-111036019D01*
X214544142Y-111707354D01*
X214053920Y-112301274D01*
X213466275Y-112798994D01*
X212799778Y-113184786D01*
X212075503Y-113446452D01*
X211304302Y-113577773D01*
X210811193Y-113590000D01*
X168945964Y-113590000D01*
X168287396Y-113523105D01*
X167690218Y-113335961D01*
X167142875Y-113032563D01*
X166667711Y-112625299D01*
X166284148Y-112130812D01*
X166007852Y-111569304D01*
X165847896Y-110955227D01*
X165810000Y-110462730D01*
X165810000Y-108814041D01*
X192918086Y-108814041D01*
X193157611Y-109320134D01*
X193572577Y-109696041D01*
X193960961Y-109856904D01*
X194183000Y-109734915D01*
X194183000Y-108592000D01*
X194437000Y-108592000D01*
X194437000Y-109734915D01*
X194659039Y-109856904D01*
X195047423Y-109696041D01*
X195462389Y-109320134D01*
X195701914Y-108814041D01*
X195580629Y-108592000D01*
X194437000Y-108592000D01*
X194183000Y-108592000D01*
X193039371Y-108592000D01*
X192918086Y-108814041D01*
X165810000Y-108814041D01*
X165810000Y-108115959D01*
X192918086Y-108115959D01*
X193039371Y-108338000D01*
X194183000Y-108338000D01*
X194183000Y-107195085D01*
X194437000Y-107195085D01*
X194437000Y-108338000D01*
X195580629Y-108338000D01*
X195701914Y-108115959D01*
X195462389Y-107609866D01*
X195047423Y-107233959D01*
X194659039Y-107073096D01*
X194437000Y-107195085D01*
X194183000Y-107195085D01*
X193960961Y-107073096D01*
X193572577Y-107233959D01*
X193157611Y-107609866D01*
X192918086Y-108115959D01*
X165810000Y-108115959D01*
X165810000Y-105927532D01*
X181917073Y-105927532D01*
X182015736Y-106194387D01*
X182625461Y-106420908D01*
X183275460Y-106396856D01*
X183764264Y-106194387D01*
X183862927Y-105927532D01*
X182890000Y-104954605D01*
X181917073Y-105927532D01*
X165810000Y-105927532D01*
X165810000Y-104510461D01*
X181244092Y-104510461D01*
X181268144Y-105160460D01*
X181470613Y-105649264D01*
X181737468Y-105747927D01*
X182710395Y-104775000D01*
X183069605Y-104775000D01*
X184042532Y-105747927D01*
X184309387Y-105649264D01*
X184535908Y-105039539D01*
X184511856Y-104389540D01*
X184309387Y-103900736D01*
X184042532Y-103802073D01*
X183069605Y-104775000D01*
X182710395Y-104775000D01*
X181737468Y-103802073D01*
X181470613Y-103900736D01*
X181244092Y-104510461D01*
X165810000Y-104510461D01*
X165810000Y-103622468D01*
X181917073Y-103622468D01*
X182890000Y-104595395D01*
X183862927Y-103622468D01*
X183764264Y-103355613D01*
X183154539Y-103129092D01*
X182504540Y-103153144D01*
X182015736Y-103355613D01*
X181917073Y-103622468D01*
X165810000Y-103622468D01*
X165810000Y-88300000D01*
X174802560Y-88300000D01*
X174802560Y-90000000D01*
X174851843Y-90247765D01*
X174992191Y-90457809D01*
X175202235Y-90598157D01*
X175450000Y-90647440D01*
X177150000Y-90647440D01*
X177397765Y-90598157D01*
X177607809Y-90457809D01*
X177617902Y-90442704D01*
X177684671Y-90509473D01*
X177727072Y-90572930D01*
X177978464Y-90740905D01*
X178200149Y-90785001D01*
X178200153Y-90785001D01*
X178275000Y-90799889D01*
X178349847Y-90785001D01*
X185401797Y-90785001D01*
X185338260Y-90880091D01*
X185226887Y-91440000D01*
X185338260Y-91999909D01*
X185655423Y-92474577D01*
X186130091Y-92791740D01*
X186548667Y-92875000D01*
X186831333Y-92875000D01*
X187249909Y-92791740D01*
X187724577Y-92474577D01*
X187890001Y-92227003D01*
X187890000Y-101250198D01*
X186205528Y-102934671D01*
X186142072Y-102977071D01*
X186099672Y-103040527D01*
X186099671Y-103040528D01*
X186041518Y-103127560D01*
X185690000Y-103127560D01*
X185442235Y-103176843D01*
X185232191Y-103317191D01*
X185091843Y-103527235D01*
X185042560Y-103775000D01*
X185042560Y-105775000D01*
X185091843Y-106022765D01*
X185232191Y-106232809D01*
X185442235Y-106373157D01*
X185690000Y-106422440D01*
X187690000Y-106422440D01*
X187937765Y-106373157D01*
X188147809Y-106232809D01*
X188288157Y-106022765D01*
X188337440Y-105775000D01*
X188337440Y-103775000D01*
X188288157Y-103527235D01*
X188147809Y-103317191D01*
X188042785Y-103247016D01*
X189134473Y-102155329D01*
X189197929Y-102112929D01*
X189365904Y-101861537D01*
X189410000Y-101639852D01*
X189410000Y-101639848D01*
X189424888Y-101565000D01*
X189410000Y-101490152D01*
X189410000Y-88394848D01*
X189424888Y-88320000D01*
X189410000Y-88245152D01*
X189410000Y-88245148D01*
X189365904Y-88023463D01*
X189197929Y-87772071D01*
X189134473Y-87729671D01*
X188088688Y-86683886D01*
X188153113Y-86360000D01*
X188080510Y-85994999D01*
X190123587Y-85994999D01*
X190123588Y-99128737D01*
X190108699Y-99203589D01*
X190123588Y-99278441D01*
X190167684Y-99500126D01*
X190335659Y-99751518D01*
X190399115Y-99793918D01*
X193179670Y-102574474D01*
X193222070Y-102637930D01*
X193473462Y-102805905D01*
X193695147Y-102850001D01*
X193695152Y-102850001D01*
X193769999Y-102864889D01*
X193844846Y-102850001D01*
X194775154Y-102850001D01*
X194850001Y-102864889D01*
X194924848Y-102850001D01*
X194924853Y-102850001D01*
X195146538Y-102805905D01*
X195397930Y-102637930D01*
X195440332Y-102574471D01*
X207665000Y-90349804D01*
X207665000Y-90735439D01*
X207883466Y-91262862D01*
X208287138Y-91666534D01*
X208814561Y-91885000D01*
X209385439Y-91885000D01*
X209912862Y-91666534D01*
X210267260Y-91312136D01*
X210331369Y-91324888D01*
X210406216Y-91310000D01*
X211775148Y-91310000D01*
X211850000Y-91324889D01*
X211924852Y-91310000D01*
X212146537Y-91265904D01*
X212397929Y-91097929D01*
X212565904Y-90846537D01*
X212624889Y-90550000D01*
X212610000Y-90475148D01*
X212610000Y-80824846D01*
X212624888Y-80749999D01*
X212610000Y-80675152D01*
X212610000Y-80675148D01*
X212565904Y-80453463D01*
X212397929Y-80202071D01*
X212334473Y-80159671D01*
X210310000Y-78135199D01*
X210310000Y-66574848D01*
X210324888Y-66500000D01*
X210310000Y-66425152D01*
X210310000Y-66425148D01*
X210271360Y-66230893D01*
X210265904Y-66203462D01*
X210140329Y-66015527D01*
X210097929Y-65952071D01*
X210034472Y-65909671D01*
X209640331Y-65515529D01*
X209597929Y-65452071D01*
X209346537Y-65284096D01*
X209124852Y-65240000D01*
X209124847Y-65240000D01*
X209050000Y-65225112D01*
X208975153Y-65240000D01*
X203738430Y-65240000D01*
X203716534Y-65187138D01*
X203312862Y-64783466D01*
X202785439Y-64565000D01*
X202214561Y-64565000D01*
X201687138Y-64783466D01*
X201283466Y-65187138D01*
X201065000Y-65714561D01*
X201065000Y-66285439D01*
X201283466Y-66812862D01*
X201687138Y-67216534D01*
X202214561Y-67435000D01*
X202785439Y-67435000D01*
X203312862Y-67216534D01*
X203716534Y-66812862D01*
X203738430Y-66760000D01*
X208735199Y-66760000D01*
X208790001Y-66814803D01*
X208790000Y-78375153D01*
X208775112Y-78450000D01*
X208790000Y-78524847D01*
X208790000Y-78524851D01*
X208790001Y-78524856D01*
X208790000Y-79735198D01*
X208635199Y-79890000D01*
X200155205Y-79890000D01*
X200071539Y-79834096D01*
X199849854Y-79790000D01*
X199849849Y-79790000D01*
X199775002Y-79775112D01*
X199700155Y-79790000D01*
X197749800Y-79790000D01*
X200619800Y-76920000D01*
X201281957Y-76920000D01*
X201465423Y-77194577D01*
X201940091Y-77511740D01*
X202358667Y-77595000D01*
X202641333Y-77595000D01*
X203059909Y-77511740D01*
X203534577Y-77194577D01*
X203851740Y-76719909D01*
X203963113Y-76160000D01*
X203851740Y-75600091D01*
X203534577Y-75125423D01*
X203059909Y-74808260D01*
X202641333Y-74725000D01*
X202358667Y-74725000D01*
X201940091Y-74808260D01*
X201465423Y-75125423D01*
X201281957Y-75400000D01*
X200379844Y-75400000D01*
X200304997Y-75385112D01*
X200230150Y-75400000D01*
X200230146Y-75400000D01*
X200008461Y-75444096D01*
X199757069Y-75612071D01*
X199714669Y-75675527D01*
X192700527Y-82689670D01*
X192637071Y-82732070D01*
X192594671Y-82795526D01*
X192594670Y-82795527D01*
X192469096Y-82983462D01*
X192410111Y-83279999D01*
X192425000Y-83354850D01*
X192424999Y-84285154D01*
X192410111Y-84360001D01*
X192424999Y-84434848D01*
X192424999Y-84434852D01*
X192469095Y-84656537D01*
X192637070Y-84907930D01*
X192700529Y-84950332D01*
X193195393Y-85445196D01*
X193039022Y-85679222D01*
X189500000Y-82140201D01*
X189500000Y-70496669D01*
X189609507Y-70451310D01*
X190041310Y-70019507D01*
X190262399Y-69485750D01*
X192565000Y-69485750D01*
X192565000Y-70226310D01*
X192661673Y-70459699D01*
X192840302Y-70638327D01*
X193073691Y-70735000D01*
X193814250Y-70735000D01*
X193973000Y-70576250D01*
X193973000Y-69327000D01*
X192723750Y-69327000D01*
X192565000Y-69485750D01*
X190262399Y-69485750D01*
X190275000Y-69455330D01*
X190275000Y-68844670D01*
X190041310Y-68280493D01*
X189934507Y-68173690D01*
X192565000Y-68173690D01*
X192565000Y-68914250D01*
X192723750Y-69073000D01*
X193973000Y-69073000D01*
X193973000Y-67823750D01*
X193814250Y-67665000D01*
X193073691Y-67665000D01*
X192840302Y-67761673D01*
X192661673Y-67940301D01*
X192565000Y-68173690D01*
X189934507Y-68173690D01*
X189609507Y-67848690D01*
X189045330Y-67615000D01*
X188434670Y-67615000D01*
X187870493Y-67848690D01*
X187701275Y-68017908D01*
X187698157Y-68002235D01*
X187557809Y-67792191D01*
X187347765Y-67651843D01*
X187100000Y-67602560D01*
X185300000Y-67602560D01*
X185052235Y-67651843D01*
X184842191Y-67792191D01*
X184701843Y-68002235D01*
X184652560Y-68250000D01*
X184652560Y-70050000D01*
X184681202Y-70193996D01*
X179988302Y-74886897D01*
X179935439Y-74865000D01*
X179364561Y-74865000D01*
X178837138Y-75083466D01*
X178433466Y-75487138D01*
X178215000Y-76014561D01*
X178215000Y-76585439D01*
X178433466Y-77112862D01*
X178837138Y-77516534D01*
X178890000Y-77538430D01*
X178890001Y-81785148D01*
X178875112Y-81860000D01*
X178890001Y-81934852D01*
X178934097Y-82156537D01*
X179102072Y-82407929D01*
X179165528Y-82450329D01*
X185291312Y-88576115D01*
X185226887Y-88900000D01*
X185299490Y-89265001D01*
X178589803Y-89265001D01*
X177990331Y-88665530D01*
X177947929Y-88602071D01*
X177797440Y-88501517D01*
X177797440Y-88300000D01*
X177748157Y-88052235D01*
X177607809Y-87842191D01*
X177397765Y-87701843D01*
X177294292Y-87681261D01*
X177571645Y-87376924D01*
X177741476Y-86966890D01*
X177620155Y-86737000D01*
X176427000Y-86737000D01*
X176427000Y-86757000D01*
X176173000Y-86757000D01*
X176173000Y-86737000D01*
X174979845Y-86737000D01*
X174858524Y-86966890D01*
X175028355Y-87376924D01*
X175305708Y-87681261D01*
X175202235Y-87701843D01*
X174992191Y-87842191D01*
X174851843Y-88052235D01*
X174802560Y-88300000D01*
X165810000Y-88300000D01*
X165810000Y-86253110D01*
X174858524Y-86253110D01*
X174979845Y-86483000D01*
X176173000Y-86483000D01*
X176173000Y-85289181D01*
X176427000Y-85289181D01*
X176427000Y-86483000D01*
X177620155Y-86483000D01*
X177741476Y-86253110D01*
X177571645Y-85843076D01*
X177181358Y-85414817D01*
X176656892Y-85168514D01*
X176427000Y-85289181D01*
X176173000Y-85289181D01*
X175943108Y-85168514D01*
X175418642Y-85414817D01*
X175028355Y-85843076D01*
X174858524Y-86253110D01*
X165810000Y-86253110D01*
X165810000Y-67429682D01*
X166046068Y-66749351D01*
X166388527Y-66140000D01*
X178186887Y-66140000D01*
X178298260Y-66699909D01*
X178615423Y-67174577D01*
X179090091Y-67491740D01*
X179508667Y-67575000D01*
X179791333Y-67575000D01*
X180209909Y-67491740D01*
X180684577Y-67174577D01*
X180868043Y-66900000D01*
X194537991Y-66900000D01*
X195653587Y-68015596D01*
X195594139Y-68075044D01*
X195538327Y-67940301D01*
X195359698Y-67761673D01*
X195126309Y-67665000D01*
X194385750Y-67665000D01*
X194227000Y-67823750D01*
X194227000Y-69073000D01*
X194247000Y-69073000D01*
X194247000Y-69327000D01*
X194227000Y-69327000D01*
X194227000Y-70576250D01*
X194385750Y-70735000D01*
X195126309Y-70735000D01*
X195359698Y-70638327D01*
X195538327Y-70459699D01*
X195594139Y-70324956D01*
X195770493Y-70501310D01*
X196334670Y-70735000D01*
X196945330Y-70735000D01*
X197509507Y-70501310D01*
X197941310Y-70069507D01*
X198175000Y-69505330D01*
X198175000Y-68894670D01*
X197941310Y-68330493D01*
X197509507Y-67898690D01*
X197400210Y-67853418D01*
X197400000Y-67852360D01*
X197400000Y-67852356D01*
X197363106Y-67666877D01*
X197355904Y-67630670D01*
X197230329Y-67442735D01*
X197187929Y-67379279D01*
X197124473Y-67336879D01*
X195443123Y-65655530D01*
X195400721Y-65592071D01*
X195149329Y-65424096D01*
X194927644Y-65380000D01*
X194927639Y-65380000D01*
X194852792Y-65365112D01*
X194777945Y-65380000D01*
X180868043Y-65380000D01*
X180684577Y-65105423D01*
X180209909Y-64788260D01*
X179791333Y-64705000D01*
X179508667Y-64705000D01*
X179090091Y-64788260D01*
X178615423Y-65105423D01*
X178298260Y-65580091D01*
X178186887Y-66140000D01*
X166388527Y-66140000D01*
X166426466Y-66072494D01*
X166920721Y-65473686D01*
X167513201Y-64971871D01*
X168185182Y-64582905D01*
X168915416Y-64319086D01*
X169698151Y-64185800D01*
X169939972Y-64176165D01*
X170110074Y-64210000D01*
X170110074Y-64210000D01*
G37*
X170110074Y-64210000D02*
X210788382Y-64210000D01*
X211593358Y-64281842D01*
X212342277Y-64486723D01*
X213043072Y-64820986D01*
X213673605Y-65274069D01*
X214213934Y-65831645D01*
X214646989Y-66476099D01*
X214959073Y-67187044D01*
X215141640Y-67947493D01*
X215190000Y-68606031D01*
X215190001Y-110262031D01*
X214921435Y-111036019D01*
X214544142Y-111707354D01*
X214053920Y-112301274D01*
X213466275Y-112798994D01*
X212799778Y-113184786D01*
X212075503Y-113446452D01*
X211304302Y-113577773D01*
X210811193Y-113590000D01*
X168945964Y-113590000D01*
X168287396Y-113523105D01*
X167690218Y-113335961D01*
X167142875Y-113032563D01*
X166667711Y-112625299D01*
X166284148Y-112130812D01*
X166007852Y-111569304D01*
X165847896Y-110955227D01*
X165810000Y-110462730D01*
X165810000Y-108814041D01*
X192918086Y-108814041D01*
X193157611Y-109320134D01*
X193572577Y-109696041D01*
X193960961Y-109856904D01*
X194183000Y-109734915D01*
X194183000Y-108592000D01*
X194437000Y-108592000D01*
X194437000Y-109734915D01*
X194659039Y-109856904D01*
X195047423Y-109696041D01*
X195462389Y-109320134D01*
X195701914Y-108814041D01*
X195580629Y-108592000D01*
X194437000Y-108592000D01*
X194183000Y-108592000D01*
X193039371Y-108592000D01*
X192918086Y-108814041D01*
X165810000Y-108814041D01*
X165810000Y-108115959D01*
X192918086Y-108115959D01*
X193039371Y-108338000D01*
X194183000Y-108338000D01*
X194183000Y-107195085D01*
X194437000Y-107195085D01*
X194437000Y-108338000D01*
X195580629Y-108338000D01*
X195701914Y-108115959D01*
X195462389Y-107609866D01*
X195047423Y-107233959D01*
X194659039Y-107073096D01*
X194437000Y-107195085D01*
X194183000Y-107195085D01*
X193960961Y-107073096D01*
X193572577Y-107233959D01*
X193157611Y-107609866D01*
X192918086Y-108115959D01*
X165810000Y-108115959D01*
X165810000Y-105927532D01*
X181917073Y-105927532D01*
X182015736Y-106194387D01*
X182625461Y-106420908D01*
X183275460Y-106396856D01*
X183764264Y-106194387D01*
X183862927Y-105927532D01*
X182890000Y-104954605D01*
X181917073Y-105927532D01*
X165810000Y-105927532D01*
X165810000Y-104510461D01*
X181244092Y-104510461D01*
X181268144Y-105160460D01*
X181470613Y-105649264D01*
X181737468Y-105747927D01*
X182710395Y-104775000D01*
X183069605Y-104775000D01*
X184042532Y-105747927D01*
X184309387Y-105649264D01*
X184535908Y-105039539D01*
X184511856Y-104389540D01*
X184309387Y-103900736D01*
X184042532Y-103802073D01*
X183069605Y-104775000D01*
X182710395Y-104775000D01*
X181737468Y-103802073D01*
X181470613Y-103900736D01*
X181244092Y-104510461D01*
X165810000Y-104510461D01*
X165810000Y-103622468D01*
X181917073Y-103622468D01*
X182890000Y-104595395D01*
X183862927Y-103622468D01*
X183764264Y-103355613D01*
X183154539Y-103129092D01*
X182504540Y-103153144D01*
X182015736Y-103355613D01*
X181917073Y-103622468D01*
X165810000Y-103622468D01*
X165810000Y-88300000D01*
X174802560Y-88300000D01*
X174802560Y-90000000D01*
X174851843Y-90247765D01*
X174992191Y-90457809D01*
X175202235Y-90598157D01*
X175450000Y-90647440D01*
X177150000Y-90647440D01*
X177397765Y-90598157D01*
X177607809Y-90457809D01*
X177617902Y-90442704D01*
X177684671Y-90509473D01*
X177727072Y-90572930D01*
X177978464Y-90740905D01*
X178200149Y-90785001D01*
X178200153Y-90785001D01*
X178275000Y-90799889D01*
X178349847Y-90785001D01*
X185401797Y-90785001D01*
X185338260Y-90880091D01*
X185226887Y-91440000D01*
X185338260Y-91999909D01*
X185655423Y-92474577D01*
X186130091Y-92791740D01*
X186548667Y-92875000D01*
X186831333Y-92875000D01*
X187249909Y-92791740D01*
X187724577Y-92474577D01*
X187890001Y-92227003D01*
X187890000Y-101250198D01*
X186205528Y-102934671D01*
X186142072Y-102977071D01*
X186099672Y-103040527D01*
X186099671Y-103040528D01*
X186041518Y-103127560D01*
X185690000Y-103127560D01*
X185442235Y-103176843D01*
X185232191Y-103317191D01*
X185091843Y-103527235D01*
X185042560Y-103775000D01*
X185042560Y-105775000D01*
X185091843Y-106022765D01*
X185232191Y-106232809D01*
X185442235Y-106373157D01*
X185690000Y-106422440D01*
X187690000Y-106422440D01*
X187937765Y-106373157D01*
X188147809Y-106232809D01*
X188288157Y-106022765D01*
X188337440Y-105775000D01*
X188337440Y-103775000D01*
X188288157Y-103527235D01*
X188147809Y-103317191D01*
X188042785Y-103247016D01*
X189134473Y-102155329D01*
X189197929Y-102112929D01*
X189365904Y-101861537D01*
X189410000Y-101639852D01*
X189410000Y-101639848D01*
X189424888Y-101565000D01*
X189410000Y-101490152D01*
X189410000Y-88394848D01*
X189424888Y-88320000D01*
X189410000Y-88245152D01*
X189410000Y-88245148D01*
X189365904Y-88023463D01*
X189197929Y-87772071D01*
X189134473Y-87729671D01*
X188088688Y-86683886D01*
X188153113Y-86360000D01*
X188080510Y-85994999D01*
X190123587Y-85994999D01*
X190123588Y-99128737D01*
X190108699Y-99203589D01*
X190123588Y-99278441D01*
X190167684Y-99500126D01*
X190335659Y-99751518D01*
X190399115Y-99793918D01*
X193179670Y-102574474D01*
X193222070Y-102637930D01*
X193473462Y-102805905D01*
X193695147Y-102850001D01*
X193695152Y-102850001D01*
X193769999Y-102864889D01*
X193844846Y-102850001D01*
X194775154Y-102850001D01*
X194850001Y-102864889D01*
X194924848Y-102850001D01*
X194924853Y-102850001D01*
X195146538Y-102805905D01*
X195397930Y-102637930D01*
X195440332Y-102574471D01*
X207665000Y-90349804D01*
X207665000Y-90735439D01*
X207883466Y-91262862D01*
X208287138Y-91666534D01*
X208814561Y-91885000D01*
X209385439Y-91885000D01*
X209912862Y-91666534D01*
X210267260Y-91312136D01*
X210331369Y-91324888D01*
X210406216Y-91310000D01*
X211775148Y-91310000D01*
X211850000Y-91324889D01*
X211924852Y-91310000D01*
X212146537Y-91265904D01*
X212397929Y-91097929D01*
X212565904Y-90846537D01*
X212624889Y-90550000D01*
X212610000Y-90475148D01*
X212610000Y-80824846D01*
X212624888Y-80749999D01*
X212610000Y-80675152D01*
X212610000Y-80675148D01*
X212565904Y-80453463D01*
X212397929Y-80202071D01*
X212334473Y-80159671D01*
X210310000Y-78135199D01*
X210310000Y-66574848D01*
X210324888Y-66500000D01*
X210310000Y-66425152D01*
X210310000Y-66425148D01*
X210271360Y-66230893D01*
X210265904Y-66203462D01*
X210140329Y-66015527D01*
X210097929Y-65952071D01*
X210034472Y-65909671D01*
X209640331Y-65515529D01*
X209597929Y-65452071D01*
X209346537Y-65284096D01*
X209124852Y-65240000D01*
X209124847Y-65240000D01*
X209050000Y-65225112D01*
X208975153Y-65240000D01*
X203738430Y-65240000D01*
X203716534Y-65187138D01*
X203312862Y-64783466D01*
X202785439Y-64565000D01*
X202214561Y-64565000D01*
X201687138Y-64783466D01*
X201283466Y-65187138D01*
X201065000Y-65714561D01*
X201065000Y-66285439D01*
X201283466Y-66812862D01*
X201687138Y-67216534D01*
X202214561Y-67435000D01*
X202785439Y-67435000D01*
X203312862Y-67216534D01*
X203716534Y-66812862D01*
X203738430Y-66760000D01*
X208735199Y-66760000D01*
X208790001Y-66814803D01*
X208790000Y-78375153D01*
X208775112Y-78450000D01*
X208790000Y-78524847D01*
X208790000Y-78524851D01*
X208790001Y-78524856D01*
X208790000Y-79735198D01*
X208635199Y-79890000D01*
X200155205Y-79890000D01*
X200071539Y-79834096D01*
X199849854Y-79790000D01*
X199849849Y-79790000D01*
X199775002Y-79775112D01*
X199700155Y-79790000D01*
X197749800Y-79790000D01*
X200619800Y-76920000D01*
X201281957Y-76920000D01*
X201465423Y-77194577D01*
X201940091Y-77511740D01*
X202358667Y-77595000D01*
X202641333Y-77595000D01*
X203059909Y-77511740D01*
X203534577Y-77194577D01*
X203851740Y-76719909D01*
X203963113Y-76160000D01*
X203851740Y-75600091D01*
X203534577Y-75125423D01*
X203059909Y-74808260D01*
X202641333Y-74725000D01*
X202358667Y-74725000D01*
X201940091Y-74808260D01*
X201465423Y-75125423D01*
X201281957Y-75400000D01*
X200379844Y-75400000D01*
X200304997Y-75385112D01*
X200230150Y-75400000D01*
X200230146Y-75400000D01*
X200008461Y-75444096D01*
X199757069Y-75612071D01*
X199714669Y-75675527D01*
X192700527Y-82689670D01*
X192637071Y-82732070D01*
X192594671Y-82795526D01*
X192594670Y-82795527D01*
X192469096Y-82983462D01*
X192410111Y-83279999D01*
X192425000Y-83354850D01*
X192424999Y-84285154D01*
X192410111Y-84360001D01*
X192424999Y-84434848D01*
X192424999Y-84434852D01*
X192469095Y-84656537D01*
X192637070Y-84907930D01*
X192700529Y-84950332D01*
X193195393Y-85445196D01*
X193039022Y-85679222D01*
X189500000Y-82140201D01*
X189500000Y-70496669D01*
X189609507Y-70451310D01*
X190041310Y-70019507D01*
X190262399Y-69485750D01*
X192565000Y-69485750D01*
X192565000Y-70226310D01*
X192661673Y-70459699D01*
X192840302Y-70638327D01*
X193073691Y-70735000D01*
X193814250Y-70735000D01*
X193973000Y-70576250D01*
X193973000Y-69327000D01*
X192723750Y-69327000D01*
X192565000Y-69485750D01*
X190262399Y-69485750D01*
X190275000Y-69455330D01*
X190275000Y-68844670D01*
X190041310Y-68280493D01*
X189934507Y-68173690D01*
X192565000Y-68173690D01*
X192565000Y-68914250D01*
X192723750Y-69073000D01*
X193973000Y-69073000D01*
X193973000Y-67823750D01*
X193814250Y-67665000D01*
X193073691Y-67665000D01*
X192840302Y-67761673D01*
X192661673Y-67940301D01*
X192565000Y-68173690D01*
X189934507Y-68173690D01*
X189609507Y-67848690D01*
X189045330Y-67615000D01*
X188434670Y-67615000D01*
X187870493Y-67848690D01*
X187701275Y-68017908D01*
X187698157Y-68002235D01*
X187557809Y-67792191D01*
X187347765Y-67651843D01*
X187100000Y-67602560D01*
X185300000Y-67602560D01*
X185052235Y-67651843D01*
X184842191Y-67792191D01*
X184701843Y-68002235D01*
X184652560Y-68250000D01*
X184652560Y-70050000D01*
X184681202Y-70193996D01*
X179988302Y-74886897D01*
X179935439Y-74865000D01*
X179364561Y-74865000D01*
X178837138Y-75083466D01*
X178433466Y-75487138D01*
X178215000Y-76014561D01*
X178215000Y-76585439D01*
X178433466Y-77112862D01*
X178837138Y-77516534D01*
X178890000Y-77538430D01*
X178890001Y-81785148D01*
X178875112Y-81860000D01*
X178890001Y-81934852D01*
X178934097Y-82156537D01*
X179102072Y-82407929D01*
X179165528Y-82450329D01*
X185291312Y-88576115D01*
X185226887Y-88900000D01*
X185299490Y-89265001D01*
X178589803Y-89265001D01*
X177990331Y-88665530D01*
X177947929Y-88602071D01*
X177797440Y-88501517D01*
X177797440Y-88300000D01*
X177748157Y-88052235D01*
X177607809Y-87842191D01*
X177397765Y-87701843D01*
X177294292Y-87681261D01*
X177571645Y-87376924D01*
X177741476Y-86966890D01*
X177620155Y-86737000D01*
X176427000Y-86737000D01*
X176427000Y-86757000D01*
X176173000Y-86757000D01*
X176173000Y-86737000D01*
X174979845Y-86737000D01*
X174858524Y-86966890D01*
X175028355Y-87376924D01*
X175305708Y-87681261D01*
X175202235Y-87701843D01*
X174992191Y-87842191D01*
X174851843Y-88052235D01*
X174802560Y-88300000D01*
X165810000Y-88300000D01*
X165810000Y-86253110D01*
X174858524Y-86253110D01*
X174979845Y-86483000D01*
X176173000Y-86483000D01*
X176173000Y-85289181D01*
X176427000Y-85289181D01*
X176427000Y-86483000D01*
X177620155Y-86483000D01*
X177741476Y-86253110D01*
X177571645Y-85843076D01*
X177181358Y-85414817D01*
X176656892Y-85168514D01*
X176427000Y-85289181D01*
X176173000Y-85289181D01*
X175943108Y-85168514D01*
X175418642Y-85414817D01*
X175028355Y-85843076D01*
X174858524Y-86253110D01*
X165810000Y-86253110D01*
X165810000Y-67429682D01*
X166046068Y-66749351D01*
X166388527Y-66140000D01*
X178186887Y-66140000D01*
X178298260Y-66699909D01*
X178615423Y-67174577D01*
X179090091Y-67491740D01*
X179508667Y-67575000D01*
X179791333Y-67575000D01*
X180209909Y-67491740D01*
X180684577Y-67174577D01*
X180868043Y-66900000D01*
X194537991Y-66900000D01*
X195653587Y-68015596D01*
X195594139Y-68075044D01*
X195538327Y-67940301D01*
X195359698Y-67761673D01*
X195126309Y-67665000D01*
X194385750Y-67665000D01*
X194227000Y-67823750D01*
X194227000Y-69073000D01*
X194247000Y-69073000D01*
X194247000Y-69327000D01*
X194227000Y-69327000D01*
X194227000Y-70576250D01*
X194385750Y-70735000D01*
X195126309Y-70735000D01*
X195359698Y-70638327D01*
X195538327Y-70459699D01*
X195594139Y-70324956D01*
X195770493Y-70501310D01*
X196334670Y-70735000D01*
X196945330Y-70735000D01*
X197509507Y-70501310D01*
X197941310Y-70069507D01*
X198175000Y-69505330D01*
X198175000Y-68894670D01*
X197941310Y-68330493D01*
X197509507Y-67898690D01*
X197400210Y-67853418D01*
X197400000Y-67852360D01*
X197400000Y-67852356D01*
X197363106Y-67666877D01*
X197355904Y-67630670D01*
X197230329Y-67442735D01*
X197187929Y-67379279D01*
X197124473Y-67336879D01*
X195443123Y-65655530D01*
X195400721Y-65592071D01*
X195149329Y-65424096D01*
X194927644Y-65380000D01*
X194927639Y-65380000D01*
X194852792Y-65365112D01*
X194777945Y-65380000D01*
X180868043Y-65380000D01*
X180684577Y-65105423D01*
X180209909Y-64788260D01*
X179791333Y-64705000D01*
X179508667Y-64705000D01*
X179090091Y-64788260D01*
X178615423Y-65105423D01*
X178298260Y-65580091D01*
X178186887Y-66140000D01*
X166388527Y-66140000D01*
X166426466Y-66072494D01*
X166920721Y-65473686D01*
X167513201Y-64971871D01*
X168185182Y-64582905D01*
X168915416Y-64319086D01*
X169698151Y-64185800D01*
X169939972Y-64176165D01*
X170110074Y-64210000D01*
G36*
X187870493Y-70451310D02*
X187980000Y-70496669D01*
X187980000Y-70497643D01*
X187980001Y-70497648D01*
X187980000Y-82380155D01*
X187965112Y-82455002D01*
X187980000Y-82529849D01*
X187980000Y-82529853D01*
X188000391Y-82632365D01*
X187849698Y-82481673D01*
X187616309Y-82385000D01*
X186975750Y-82385000D01*
X186817000Y-82543750D01*
X186817000Y-83693000D01*
X187966250Y-83693000D01*
X188125000Y-83534250D01*
X188125000Y-82902552D01*
X188192071Y-83002931D01*
X188255530Y-83045333D01*
X189685196Y-84474999D01*
X188125000Y-84474999D01*
X188125000Y-84105750D01*
X187966250Y-83947000D01*
X186817000Y-83947000D01*
X186817000Y-83967000D01*
X186563000Y-83967000D01*
X186563000Y-83947000D01*
X185413750Y-83947000D01*
X185255000Y-84105750D01*
X185255000Y-84746310D01*
X185345471Y-84964726D01*
X185080527Y-85229670D01*
X185017071Y-85272070D01*
X184974671Y-85335526D01*
X184974670Y-85335527D01*
X184849096Y-85523462D01*
X184790111Y-85819999D01*
X184805000Y-85894850D01*
X184805000Y-85940198D01*
X181758492Y-82893690D01*
X185255000Y-82893690D01*
X185255000Y-83534250D01*
X185413750Y-83693000D01*
X186563000Y-83693000D01*
X186563000Y-82543750D01*
X186404250Y-82385000D01*
X185763691Y-82385000D01*
X185530302Y-82481673D01*
X185351673Y-82660301D01*
X185255000Y-82893690D01*
X181758492Y-82893690D01*
X180410000Y-81545199D01*
X180410000Y-77538430D01*
X180462862Y-77516534D01*
X180866534Y-77112862D01*
X181085000Y-76585439D01*
X181085000Y-76014561D01*
X181063103Y-75961698D01*
X186327362Y-70697440D01*
X187100000Y-70697440D01*
X187347765Y-70648157D01*
X187557809Y-70507809D01*
X187698157Y-70297765D01*
X187701275Y-70282092D01*
X187870493Y-70451310D01*
X187870493Y-70451310D01*
G37*
X187870493Y-70451310D02*
X187980000Y-70496669D01*
X187980000Y-70497643D01*
X187980001Y-70497648D01*
X187980000Y-82380155D01*
X187965112Y-82455002D01*
X187980000Y-82529849D01*
X187980000Y-82529853D01*
X188000391Y-82632365D01*
X187849698Y-82481673D01*
X187616309Y-82385000D01*
X186975750Y-82385000D01*
X186817000Y-82543750D01*
X186817000Y-83693000D01*
X187966250Y-83693000D01*
X188125000Y-83534250D01*
X188125000Y-82902552D01*
X188192071Y-83002931D01*
X188255530Y-83045333D01*
X189685196Y-84474999D01*
X188125000Y-84474999D01*
X188125000Y-84105750D01*
X187966250Y-83947000D01*
X186817000Y-83947000D01*
X186817000Y-83967000D01*
X186563000Y-83967000D01*
X186563000Y-83947000D01*
X185413750Y-83947000D01*
X185255000Y-84105750D01*
X185255000Y-84746310D01*
X185345471Y-84964726D01*
X185080527Y-85229670D01*
X185017071Y-85272070D01*
X184974671Y-85335526D01*
X184974670Y-85335527D01*
X184849096Y-85523462D01*
X184790111Y-85819999D01*
X184805000Y-85894850D01*
X184805000Y-85940198D01*
X181758492Y-82893690D01*
X185255000Y-82893690D01*
X185255000Y-83534250D01*
X185413750Y-83693000D01*
X186563000Y-83693000D01*
X186563000Y-82543750D01*
X186404250Y-82385000D01*
X185763691Y-82385000D01*
X185530302Y-82481673D01*
X185351673Y-82660301D01*
X185255000Y-82893690D01*
X181758492Y-82893690D01*
X180410000Y-81545199D01*
X180410000Y-77538430D01*
X180462862Y-77516534D01*
X180866534Y-77112862D01*
X181085000Y-76585439D01*
X181085000Y-76014561D01*
X181063103Y-75961698D01*
X186327362Y-70697440D01*
X187100000Y-70697440D01*
X187347765Y-70648157D01*
X187557809Y-70507809D01*
X187698157Y-70297765D01*
X187701275Y-70282092D01*
X187870493Y-70451310D01*
G04 #@! TD*
M02*
