G04 #@! TF.GenerationSoftware,KiCad,Pcbnew,(5.0.2)-1*
G04 #@! TF.CreationDate,2019-03-28T21:57:09+05:00*
G04 #@! TF.ProjectId,LM555Blinky,4c4d3535-3542-46c6-996e-6b792e6b6963,rev?*
G04 #@! TF.SameCoordinates,Original*
G04 #@! TF.FileFunction,Copper,L2,Bot*
G04 #@! TF.FilePolarity,Positive*
%FSLAX46Y46*%
G04 Gerber Fmt 4.6, Leading zero omitted, Abs format (unit mm)*
G04 Created by KiCad (PCBNEW (5.0.2)-1) date 3/28/2019 9:57:09 PM*
%MOMM*%
%LPD*%
G01*
G04 APERTURE LIST*
G04 #@! TA.AperFunction,NonConductor*
%ADD10C,0.200000*%
G04 #@! TD*
G04 #@! TA.AperFunction,NonConductor*
%ADD11C,0.150000*%
G04 #@! TD*
G04 #@! TA.AperFunction,ComponentPad*
%ADD12C,1.600000*%
G04 #@! TD*
G04 #@! TA.AperFunction,ComponentPad*
%ADD13O,1.600000X1.600000*%
G04 #@! TD*
G04 #@! TA.AperFunction,ComponentPad*
%ADD14R,2.000000X2.000000*%
G04 #@! TD*
G04 #@! TA.AperFunction,ComponentPad*
%ADD15C,2.000000*%
G04 #@! TD*
G04 #@! TA.AperFunction,ComponentPad*
%ADD16C,1.800000*%
G04 #@! TD*
G04 #@! TA.AperFunction,ComponentPad*
%ADD17R,1.800000X1.800000*%
G04 #@! TD*
G04 #@! TA.AperFunction,ComponentPad*
%ADD18R,1.600000X1.600000*%
G04 #@! TD*
G04 #@! TA.AperFunction,ComponentPad*
%ADD19R,1.700000X1.700000*%
G04 #@! TD*
G04 #@! TA.AperFunction,ComponentPad*
%ADD20O,1.700000X1.700000*%
G04 #@! TD*
G04 #@! TA.AperFunction,Conductor*
%ADD21C,0.254000*%
G04 #@! TD*
G04 APERTURE END LIST*
D10*
X197589047Y-112958571D02*
X197731904Y-113006190D01*
X197779523Y-113053809D01*
X197827142Y-113149047D01*
X197827142Y-113291904D01*
X197779523Y-113387142D01*
X197731904Y-113434761D01*
X197636666Y-113482380D01*
X197255714Y-113482380D01*
X197255714Y-112482380D01*
X197589047Y-112482380D01*
X197684285Y-112530000D01*
X197731904Y-112577619D01*
X197779523Y-112672857D01*
X197779523Y-112768095D01*
X197731904Y-112863333D01*
X197684285Y-112910952D01*
X197589047Y-112958571D01*
X197255714Y-112958571D01*
X198398571Y-113482380D02*
X198303333Y-113434761D01*
X198255714Y-113339523D01*
X198255714Y-112482380D01*
X198779523Y-113482380D02*
X198779523Y-112815714D01*
X198779523Y-112482380D02*
X198731904Y-112530000D01*
X198779523Y-112577619D01*
X198827142Y-112530000D01*
X198779523Y-112482380D01*
X198779523Y-112577619D01*
X199255714Y-112815714D02*
X199255714Y-113482380D01*
X199255714Y-112910952D02*
X199303333Y-112863333D01*
X199398571Y-112815714D01*
X199541428Y-112815714D01*
X199636666Y-112863333D01*
X199684285Y-112958571D01*
X199684285Y-113482380D01*
X200160476Y-113482380D02*
X200160476Y-112482380D01*
X200255714Y-113101428D02*
X200541428Y-113482380D01*
X200541428Y-112815714D02*
X200160476Y-113196666D01*
X200874761Y-112815714D02*
X201112857Y-113482380D01*
X201350952Y-112815714D02*
X201112857Y-113482380D01*
X201017619Y-113720476D01*
X200970000Y-113768095D01*
X200874761Y-113815714D01*
X202827142Y-112958571D02*
X202970000Y-113006190D01*
X203017619Y-113053809D01*
X203065238Y-113149047D01*
X203065238Y-113291904D01*
X203017619Y-113387142D01*
X202970000Y-113434761D01*
X202874761Y-113482380D01*
X202493809Y-113482380D01*
X202493809Y-112482380D01*
X202827142Y-112482380D01*
X202922380Y-112530000D01*
X202970000Y-112577619D01*
X203017619Y-112672857D01*
X203017619Y-112768095D01*
X202970000Y-112863333D01*
X202922380Y-112910952D01*
X202827142Y-112958571D01*
X202493809Y-112958571D01*
X203636666Y-113482380D02*
X203541428Y-113434761D01*
X203493809Y-113387142D01*
X203446190Y-113291904D01*
X203446190Y-113006190D01*
X203493809Y-112910952D01*
X203541428Y-112863333D01*
X203636666Y-112815714D01*
X203779523Y-112815714D01*
X203874761Y-112863333D01*
X203922380Y-112910952D01*
X203970000Y-113006190D01*
X203970000Y-113291904D01*
X203922380Y-113387142D01*
X203874761Y-113434761D01*
X203779523Y-113482380D01*
X203636666Y-113482380D01*
X204827142Y-113482380D02*
X204827142Y-112958571D01*
X204779523Y-112863333D01*
X204684285Y-112815714D01*
X204493809Y-112815714D01*
X204398571Y-112863333D01*
X204827142Y-113434761D02*
X204731904Y-113482380D01*
X204493809Y-113482380D01*
X204398571Y-113434761D01*
X204350952Y-113339523D01*
X204350952Y-113244285D01*
X204398571Y-113149047D01*
X204493809Y-113101428D01*
X204731904Y-113101428D01*
X204827142Y-113053809D01*
X205303333Y-113482380D02*
X205303333Y-112815714D01*
X205303333Y-113006190D02*
X205350952Y-112910952D01*
X205398571Y-112863333D01*
X205493809Y-112815714D01*
X205589047Y-112815714D01*
X206350952Y-113482380D02*
X206350952Y-112482380D01*
X206350952Y-113434761D02*
X206255714Y-113482380D01*
X206065238Y-113482380D01*
X205970000Y-113434761D01*
X205922380Y-113387142D01*
X205874761Y-113291904D01*
X205874761Y-113006190D01*
X205922380Y-112910952D01*
X205970000Y-112863333D01*
X206065238Y-112815714D01*
X206255714Y-112815714D01*
X206350952Y-112863333D01*
X207493809Y-112815714D02*
X207731904Y-113482380D01*
X207970000Y-112815714D01*
X208874761Y-113482380D02*
X208303333Y-113482380D01*
X208589047Y-113482380D02*
X208589047Y-112482380D01*
X208493809Y-112625238D01*
X208398571Y-112720476D01*
X208303333Y-112768095D01*
X209303333Y-113387142D02*
X209350952Y-113434761D01*
X209303333Y-113482380D01*
X209255714Y-113434761D01*
X209303333Y-113387142D01*
X209303333Y-113482380D01*
X209970000Y-112482380D02*
X210065238Y-112482380D01*
X210160476Y-112530000D01*
X210208095Y-112577619D01*
X210255714Y-112672857D01*
X210303333Y-112863333D01*
X210303333Y-113101428D01*
X210255714Y-113291904D01*
X210208095Y-113387142D01*
X210160476Y-113434761D01*
X210065238Y-113482380D01*
X209970000Y-113482380D01*
X209874761Y-113434761D01*
X209827142Y-113387142D01*
X209779523Y-113291904D01*
X209731904Y-113101428D01*
X209731904Y-112863333D01*
X209779523Y-112672857D01*
X209827142Y-112577619D01*
X209874761Y-112530000D01*
X209970000Y-112482380D01*
X210731904Y-113387142D02*
X210779523Y-113434761D01*
X210731904Y-113482380D01*
X210684285Y-113434761D01*
X210731904Y-113387142D01*
X210731904Y-113482380D01*
X211398571Y-112482380D02*
X211493809Y-112482380D01*
X211589047Y-112530000D01*
X211636666Y-112577619D01*
X211684285Y-112672857D01*
X211731904Y-112863333D01*
X211731904Y-113101428D01*
X211684285Y-113291904D01*
X211636666Y-113387142D01*
X211589047Y-113434761D01*
X211493809Y-113482380D01*
X211398571Y-113482380D01*
X211303333Y-113434761D01*
X211255714Y-113387142D01*
X211208095Y-113291904D01*
X211160476Y-113101428D01*
X211160476Y-112863333D01*
X211208095Y-112672857D01*
X211255714Y-112577619D01*
X211303333Y-112530000D01*
X211398571Y-112482380D01*
D11*
X210820000Y-63500000D02*
G75*
G02X215900000Y-68580000I0J-5080000D01*
G01*
X165100000Y-67310000D02*
G75*
G02X170028324Y-63462081I4928324J-1232081D01*
G01*
X215865426Y-110481356D02*
G75*
G02X210820000Y-114300000I-4893750J1223437D01*
G01*
X168910000Y-114300000D02*
G75*
G02X165100000Y-110490000I0J3810000D01*
G01*
X165100000Y-110490000D02*
X165100000Y-67310000D01*
X168910000Y-114300000D02*
X210820000Y-114300000D01*
X215900000Y-67310000D02*
X215900000Y-110490000D01*
X170180000Y-63500000D02*
X210820000Y-63500000D01*
D12*
G04 #@! TO.P,C2,1*
G04 #@! TO.N,Net-(C2-Pad1)*
X194310000Y-100965000D03*
D13*
G04 #@! TO.P,C2,2*
G04 #@! TO.N,GND*
X194310000Y-108465000D03*
G04 #@! TD*
D14*
G04 #@! TO.P,C1,1*
G04 #@! TO.N,/TRIG*
X186690000Y-104775000D03*
D15*
G04 #@! TO.P,C1,2*
G04 #@! TO.N,GND*
X182890000Y-104775000D03*
G04 #@! TD*
D16*
G04 #@! TO.P,D2,2*
G04 #@! TO.N,Net-(D2-Pad2)*
X196640000Y-69200000D03*
D17*
G04 #@! TO.P,D2,1*
G04 #@! TO.N,GND*
X194100000Y-69200000D03*
G04 #@! TD*
G04 #@! TO.P,D1,1*
G04 #@! TO.N,/BLINK*
X186200000Y-69150000D03*
D16*
G04 #@! TO.P,D1,2*
G04 #@! TO.N,Net-(D1-Pad2)*
X188740000Y-69150000D03*
G04 #@! TD*
D18*
G04 #@! TO.P,U1,1*
G04 #@! TO.N,GND*
X186690000Y-83820000D03*
D13*
G04 #@! TO.P,U1,5*
G04 #@! TO.N,Net-(C2-Pad1)*
X194310000Y-91440000D03*
G04 #@! TO.P,U1,2*
G04 #@! TO.N,/TRIG*
X186690000Y-86360000D03*
G04 #@! TO.P,U1,6*
X194310000Y-88900000D03*
G04 #@! TO.P,U1,3*
G04 #@! TO.N,/BLINK*
X186690000Y-88900000D03*
G04 #@! TO.P,U1,7*
G04 #@! TO.N,Net-(R1-Pad2)*
X194310000Y-86360000D03*
G04 #@! TO.P,U1,4*
G04 #@! TO.N,Net-(U1-Pad4)*
X186690000Y-91440000D03*
G04 #@! TO.P,U1,8*
G04 #@! TO.N,VCC*
X194310000Y-83820000D03*
G04 #@! TD*
G04 #@! TO.P,R4,2*
G04 #@! TO.N,Net-(D2-Pad2)*
X179650000Y-66140000D03*
D12*
G04 #@! TO.P,R4,1*
G04 #@! TO.N,/BLINK*
X179650000Y-76300000D03*
G04 #@! TD*
G04 #@! TO.P,R3,1*
G04 #@! TO.N,VCC*
X209100000Y-90450000D03*
D13*
G04 #@! TO.P,R3,2*
G04 #@! TO.N,Net-(D1-Pad2)*
X198940000Y-90450000D03*
G04 #@! TD*
G04 #@! TO.P,R2,2*
G04 #@! TO.N,/TRIG*
X209260000Y-85700000D03*
D12*
G04 #@! TO.P,R2,1*
G04 #@! TO.N,Net-(R1-Pad2)*
X199100000Y-85700000D03*
G04 #@! TD*
G04 #@! TO.P,R1,1*
G04 #@! TO.N,VCC*
X202500000Y-66000000D03*
D13*
G04 #@! TO.P,R1,2*
G04 #@! TO.N,Net-(R1-Pad2)*
X202500000Y-76160000D03*
G04 #@! TD*
D19*
G04 #@! TO.P,J1,1*
G04 #@! TO.N,VCC*
X176300000Y-89150000D03*
D20*
G04 #@! TO.P,J1,2*
G04 #@! TO.N,GND*
X176300000Y-86610000D03*
G04 #@! TD*
D21*
G04 #@! TO.N,GND*
G36*
X170110074Y-64210000D02*
X210788382Y-64210000D01*
X211593358Y-64281842D01*
X212342277Y-64486723D01*
X213043072Y-64820986D01*
X213673605Y-65274069D01*
X214213934Y-65831645D01*
X214646989Y-66476099D01*
X214959073Y-67187044D01*
X215141640Y-67947493D01*
X215190000Y-68606031D01*
X215190001Y-110262031D01*
X214921435Y-111036019D01*
X214544142Y-111707354D01*
X214053920Y-112301274D01*
X213466275Y-112798994D01*
X212799778Y-113184786D01*
X212657381Y-113236231D01*
X212657381Y-111625000D01*
X196282619Y-111625000D01*
X196282619Y-113590000D01*
X168945964Y-113590000D01*
X168287396Y-113523105D01*
X167690218Y-113335961D01*
X167142875Y-113032563D01*
X166667711Y-112625299D01*
X166284148Y-112130812D01*
X166007852Y-111569304D01*
X165847896Y-110955227D01*
X165810000Y-110462730D01*
X165810000Y-108814041D01*
X192918086Y-108814041D01*
X193157611Y-109320134D01*
X193572577Y-109696041D01*
X193960961Y-109856904D01*
X194183000Y-109734915D01*
X194183000Y-108592000D01*
X194437000Y-108592000D01*
X194437000Y-109734915D01*
X194659039Y-109856904D01*
X195047423Y-109696041D01*
X195462389Y-109320134D01*
X195701914Y-108814041D01*
X195580629Y-108592000D01*
X194437000Y-108592000D01*
X194183000Y-108592000D01*
X193039371Y-108592000D01*
X192918086Y-108814041D01*
X165810000Y-108814041D01*
X165810000Y-108115959D01*
X192918086Y-108115959D01*
X193039371Y-108338000D01*
X194183000Y-108338000D01*
X194183000Y-107195085D01*
X194437000Y-107195085D01*
X194437000Y-108338000D01*
X195580629Y-108338000D01*
X195701914Y-108115959D01*
X195462389Y-107609866D01*
X195047423Y-107233959D01*
X194659039Y-107073096D01*
X194437000Y-107195085D01*
X194183000Y-107195085D01*
X193960961Y-107073096D01*
X193572577Y-107233959D01*
X193157611Y-107609866D01*
X192918086Y-108115959D01*
X165810000Y-108115959D01*
X165810000Y-105927532D01*
X181917073Y-105927532D01*
X182015736Y-106194387D01*
X182625461Y-106420908D01*
X183275460Y-106396856D01*
X183764264Y-106194387D01*
X183862927Y-105927532D01*
X182890000Y-104954605D01*
X181917073Y-105927532D01*
X165810000Y-105927532D01*
X165810000Y-104510461D01*
X181244092Y-104510461D01*
X181268144Y-105160460D01*
X181470613Y-105649264D01*
X181737468Y-105747927D01*
X182710395Y-104775000D01*
X183069605Y-104775000D01*
X184042532Y-105747927D01*
X184309387Y-105649264D01*
X184535908Y-105039539D01*
X184511856Y-104389540D01*
X184309387Y-103900736D01*
X184042532Y-103802073D01*
X183069605Y-104775000D01*
X182710395Y-104775000D01*
X181737468Y-103802073D01*
X181470613Y-103900736D01*
X181244092Y-104510461D01*
X165810000Y-104510461D01*
X165810000Y-103622468D01*
X181917073Y-103622468D01*
X182890000Y-104595395D01*
X183710395Y-103775000D01*
X185042560Y-103775000D01*
X185042560Y-105775000D01*
X185091843Y-106022765D01*
X185232191Y-106232809D01*
X185442235Y-106373157D01*
X185690000Y-106422440D01*
X187690000Y-106422440D01*
X187937765Y-106373157D01*
X188147809Y-106232809D01*
X188288157Y-106022765D01*
X188337440Y-105775000D01*
X188337440Y-103775000D01*
X188288157Y-103527235D01*
X188147809Y-103317191D01*
X187937765Y-103176843D01*
X187690000Y-103127560D01*
X185690000Y-103127560D01*
X185442235Y-103176843D01*
X185232191Y-103317191D01*
X185091843Y-103527235D01*
X185042560Y-103775000D01*
X183710395Y-103775000D01*
X183862927Y-103622468D01*
X183764264Y-103355613D01*
X183154539Y-103129092D01*
X182504540Y-103153144D01*
X182015736Y-103355613D01*
X181917073Y-103622468D01*
X165810000Y-103622468D01*
X165810000Y-100679561D01*
X192875000Y-100679561D01*
X192875000Y-101250439D01*
X193093466Y-101777862D01*
X193497138Y-102181534D01*
X194024561Y-102400000D01*
X194595439Y-102400000D01*
X195122862Y-102181534D01*
X195526534Y-101777862D01*
X195745000Y-101250439D01*
X195745000Y-100679561D01*
X195526534Y-100152138D01*
X195122862Y-99748466D01*
X194595439Y-99530000D01*
X194024561Y-99530000D01*
X193497138Y-99748466D01*
X193093466Y-100152138D01*
X192875000Y-100679561D01*
X165810000Y-100679561D01*
X165810000Y-88300000D01*
X174802560Y-88300000D01*
X174802560Y-90000000D01*
X174851843Y-90247765D01*
X174992191Y-90457809D01*
X175202235Y-90598157D01*
X175450000Y-90647440D01*
X177150000Y-90647440D01*
X177397765Y-90598157D01*
X177607809Y-90457809D01*
X177748157Y-90247765D01*
X177797440Y-90000000D01*
X177797440Y-88300000D01*
X177748157Y-88052235D01*
X177607809Y-87842191D01*
X177397765Y-87701843D01*
X177294292Y-87681261D01*
X177571645Y-87376924D01*
X177741476Y-86966890D01*
X177620155Y-86737000D01*
X176427000Y-86737000D01*
X176427000Y-86757000D01*
X176173000Y-86757000D01*
X176173000Y-86737000D01*
X174979845Y-86737000D01*
X174858524Y-86966890D01*
X175028355Y-87376924D01*
X175305708Y-87681261D01*
X175202235Y-87701843D01*
X174992191Y-87842191D01*
X174851843Y-88052235D01*
X174802560Y-88300000D01*
X165810000Y-88300000D01*
X165810000Y-86253110D01*
X174858524Y-86253110D01*
X174979845Y-86483000D01*
X176173000Y-86483000D01*
X176173000Y-85289181D01*
X176427000Y-85289181D01*
X176427000Y-86483000D01*
X177620155Y-86483000D01*
X177685066Y-86360000D01*
X185226887Y-86360000D01*
X185338260Y-86919909D01*
X185655423Y-87394577D01*
X186007758Y-87630000D01*
X185655423Y-87865423D01*
X185338260Y-88340091D01*
X185226887Y-88900000D01*
X185338260Y-89459909D01*
X185655423Y-89934577D01*
X186007758Y-90170000D01*
X185655423Y-90405423D01*
X185338260Y-90880091D01*
X185226887Y-91440000D01*
X185338260Y-91999909D01*
X185655423Y-92474577D01*
X186130091Y-92791740D01*
X186548667Y-92875000D01*
X186831333Y-92875000D01*
X187249909Y-92791740D01*
X187724577Y-92474577D01*
X188041740Y-91999909D01*
X188153113Y-91440000D01*
X188041740Y-90880091D01*
X187724577Y-90405423D01*
X187372242Y-90170000D01*
X187724577Y-89934577D01*
X188041740Y-89459909D01*
X188153113Y-88900000D01*
X188041740Y-88340091D01*
X187724577Y-87865423D01*
X187372242Y-87630000D01*
X187724577Y-87394577D01*
X188041740Y-86919909D01*
X188153113Y-86360000D01*
X188041740Y-85800091D01*
X187724577Y-85325423D01*
X187618082Y-85254265D01*
X187849698Y-85158327D01*
X188028327Y-84979699D01*
X188125000Y-84746310D01*
X188125000Y-84105750D01*
X187966250Y-83947000D01*
X186817000Y-83947000D01*
X186817000Y-83967000D01*
X186563000Y-83967000D01*
X186563000Y-83947000D01*
X185413750Y-83947000D01*
X185255000Y-84105750D01*
X185255000Y-84746310D01*
X185351673Y-84979699D01*
X185530302Y-85158327D01*
X185761918Y-85254265D01*
X185655423Y-85325423D01*
X185338260Y-85800091D01*
X185226887Y-86360000D01*
X177685066Y-86360000D01*
X177741476Y-86253110D01*
X177571645Y-85843076D01*
X177181358Y-85414817D01*
X176656892Y-85168514D01*
X176427000Y-85289181D01*
X176173000Y-85289181D01*
X175943108Y-85168514D01*
X175418642Y-85414817D01*
X175028355Y-85843076D01*
X174858524Y-86253110D01*
X165810000Y-86253110D01*
X165810000Y-83820000D01*
X192846887Y-83820000D01*
X192958260Y-84379909D01*
X193275423Y-84854577D01*
X193627758Y-85090000D01*
X193275423Y-85325423D01*
X192958260Y-85800091D01*
X192846887Y-86360000D01*
X192958260Y-86919909D01*
X193275423Y-87394577D01*
X193627758Y-87630000D01*
X193275423Y-87865423D01*
X192958260Y-88340091D01*
X192846887Y-88900000D01*
X192958260Y-89459909D01*
X193275423Y-89934577D01*
X193627758Y-90170000D01*
X193275423Y-90405423D01*
X192958260Y-90880091D01*
X192846887Y-91440000D01*
X192958260Y-91999909D01*
X193275423Y-92474577D01*
X193750091Y-92791740D01*
X194168667Y-92875000D01*
X194451333Y-92875000D01*
X194869909Y-92791740D01*
X195344577Y-92474577D01*
X195661740Y-91999909D01*
X195773113Y-91440000D01*
X195661740Y-90880091D01*
X195374363Y-90450000D01*
X197476887Y-90450000D01*
X197588260Y-91009909D01*
X197905423Y-91484577D01*
X198380091Y-91801740D01*
X198798667Y-91885000D01*
X199081333Y-91885000D01*
X199499909Y-91801740D01*
X199974577Y-91484577D01*
X200291740Y-91009909D01*
X200403113Y-90450000D01*
X200346336Y-90164561D01*
X207665000Y-90164561D01*
X207665000Y-90735439D01*
X207883466Y-91262862D01*
X208287138Y-91666534D01*
X208814561Y-91885000D01*
X209385439Y-91885000D01*
X209912862Y-91666534D01*
X210316534Y-91262862D01*
X210535000Y-90735439D01*
X210535000Y-90164561D01*
X210316534Y-89637138D01*
X209912862Y-89233466D01*
X209385439Y-89015000D01*
X208814561Y-89015000D01*
X208287138Y-89233466D01*
X207883466Y-89637138D01*
X207665000Y-90164561D01*
X200346336Y-90164561D01*
X200291740Y-89890091D01*
X199974577Y-89415423D01*
X199499909Y-89098260D01*
X199081333Y-89015000D01*
X198798667Y-89015000D01*
X198380091Y-89098260D01*
X197905423Y-89415423D01*
X197588260Y-89890091D01*
X197476887Y-90450000D01*
X195374363Y-90450000D01*
X195344577Y-90405423D01*
X194992242Y-90170000D01*
X195344577Y-89934577D01*
X195661740Y-89459909D01*
X195773113Y-88900000D01*
X195661740Y-88340091D01*
X195344577Y-87865423D01*
X194992242Y-87630000D01*
X195344577Y-87394577D01*
X195661740Y-86919909D01*
X195773113Y-86360000D01*
X195661740Y-85800091D01*
X195404138Y-85414561D01*
X197665000Y-85414561D01*
X197665000Y-85985439D01*
X197883466Y-86512862D01*
X198287138Y-86916534D01*
X198814561Y-87135000D01*
X199385439Y-87135000D01*
X199912862Y-86916534D01*
X200316534Y-86512862D01*
X200535000Y-85985439D01*
X200535000Y-85700000D01*
X207796887Y-85700000D01*
X207908260Y-86259909D01*
X208225423Y-86734577D01*
X208700091Y-87051740D01*
X209118667Y-87135000D01*
X209401333Y-87135000D01*
X209819909Y-87051740D01*
X210294577Y-86734577D01*
X210611740Y-86259909D01*
X210723113Y-85700000D01*
X210611740Y-85140091D01*
X210294577Y-84665423D01*
X209819909Y-84348260D01*
X209401333Y-84265000D01*
X209118667Y-84265000D01*
X208700091Y-84348260D01*
X208225423Y-84665423D01*
X207908260Y-85140091D01*
X207796887Y-85700000D01*
X200535000Y-85700000D01*
X200535000Y-85414561D01*
X200316534Y-84887138D01*
X199912862Y-84483466D01*
X199385439Y-84265000D01*
X198814561Y-84265000D01*
X198287138Y-84483466D01*
X197883466Y-84887138D01*
X197665000Y-85414561D01*
X195404138Y-85414561D01*
X195344577Y-85325423D01*
X194992242Y-85090000D01*
X195344577Y-84854577D01*
X195661740Y-84379909D01*
X195773113Y-83820000D01*
X195661740Y-83260091D01*
X195344577Y-82785423D01*
X194869909Y-82468260D01*
X194451333Y-82385000D01*
X194168667Y-82385000D01*
X193750091Y-82468260D01*
X193275423Y-82785423D01*
X192958260Y-83260091D01*
X192846887Y-83820000D01*
X165810000Y-83820000D01*
X165810000Y-82893690D01*
X185255000Y-82893690D01*
X185255000Y-83534250D01*
X185413750Y-83693000D01*
X186563000Y-83693000D01*
X186563000Y-82543750D01*
X186817000Y-82543750D01*
X186817000Y-83693000D01*
X187966250Y-83693000D01*
X188125000Y-83534250D01*
X188125000Y-82893690D01*
X188028327Y-82660301D01*
X187849698Y-82481673D01*
X187616309Y-82385000D01*
X186975750Y-82385000D01*
X186817000Y-82543750D01*
X186563000Y-82543750D01*
X186404250Y-82385000D01*
X185763691Y-82385000D01*
X185530302Y-82481673D01*
X185351673Y-82660301D01*
X185255000Y-82893690D01*
X165810000Y-82893690D01*
X165810000Y-76014561D01*
X178215000Y-76014561D01*
X178215000Y-76585439D01*
X178433466Y-77112862D01*
X178837138Y-77516534D01*
X179364561Y-77735000D01*
X179935439Y-77735000D01*
X180462862Y-77516534D01*
X180866534Y-77112862D01*
X181085000Y-76585439D01*
X181085000Y-76160000D01*
X201036887Y-76160000D01*
X201148260Y-76719909D01*
X201465423Y-77194577D01*
X201940091Y-77511740D01*
X202358667Y-77595000D01*
X202641333Y-77595000D01*
X203059909Y-77511740D01*
X203534577Y-77194577D01*
X203851740Y-76719909D01*
X203963113Y-76160000D01*
X203851740Y-75600091D01*
X203534577Y-75125423D01*
X203059909Y-74808260D01*
X202641333Y-74725000D01*
X202358667Y-74725000D01*
X201940091Y-74808260D01*
X201465423Y-75125423D01*
X201148260Y-75600091D01*
X201036887Y-76160000D01*
X181085000Y-76160000D01*
X181085000Y-76014561D01*
X180866534Y-75487138D01*
X180462862Y-75083466D01*
X179935439Y-74865000D01*
X179364561Y-74865000D01*
X178837138Y-75083466D01*
X178433466Y-75487138D01*
X178215000Y-76014561D01*
X165810000Y-76014561D01*
X165810000Y-68250000D01*
X184652560Y-68250000D01*
X184652560Y-70050000D01*
X184701843Y-70297765D01*
X184842191Y-70507809D01*
X185052235Y-70648157D01*
X185300000Y-70697440D01*
X187100000Y-70697440D01*
X187347765Y-70648157D01*
X187557809Y-70507809D01*
X187698157Y-70297765D01*
X187701275Y-70282092D01*
X187870493Y-70451310D01*
X188434670Y-70685000D01*
X189045330Y-70685000D01*
X189609507Y-70451310D01*
X190041310Y-70019507D01*
X190262399Y-69485750D01*
X192565000Y-69485750D01*
X192565000Y-70226310D01*
X192661673Y-70459699D01*
X192840302Y-70638327D01*
X193073691Y-70735000D01*
X193814250Y-70735000D01*
X193973000Y-70576250D01*
X193973000Y-69327000D01*
X192723750Y-69327000D01*
X192565000Y-69485750D01*
X190262399Y-69485750D01*
X190275000Y-69455330D01*
X190275000Y-68844670D01*
X190041310Y-68280493D01*
X189934507Y-68173690D01*
X192565000Y-68173690D01*
X192565000Y-68914250D01*
X192723750Y-69073000D01*
X193973000Y-69073000D01*
X193973000Y-67823750D01*
X194227000Y-67823750D01*
X194227000Y-69073000D01*
X194247000Y-69073000D01*
X194247000Y-69327000D01*
X194227000Y-69327000D01*
X194227000Y-70576250D01*
X194385750Y-70735000D01*
X195126309Y-70735000D01*
X195359698Y-70638327D01*
X195538327Y-70459699D01*
X195594139Y-70324956D01*
X195770493Y-70501310D01*
X196334670Y-70735000D01*
X196945330Y-70735000D01*
X197509507Y-70501310D01*
X197941310Y-70069507D01*
X198175000Y-69505330D01*
X198175000Y-68894670D01*
X197941310Y-68330493D01*
X197509507Y-67898690D01*
X196945330Y-67665000D01*
X196334670Y-67665000D01*
X195770493Y-67898690D01*
X195594139Y-68075044D01*
X195538327Y-67940301D01*
X195359698Y-67761673D01*
X195126309Y-67665000D01*
X194385750Y-67665000D01*
X194227000Y-67823750D01*
X193973000Y-67823750D01*
X193814250Y-67665000D01*
X193073691Y-67665000D01*
X192840302Y-67761673D01*
X192661673Y-67940301D01*
X192565000Y-68173690D01*
X189934507Y-68173690D01*
X189609507Y-67848690D01*
X189045330Y-67615000D01*
X188434670Y-67615000D01*
X187870493Y-67848690D01*
X187701275Y-68017908D01*
X187698157Y-68002235D01*
X187557809Y-67792191D01*
X187347765Y-67651843D01*
X187100000Y-67602560D01*
X185300000Y-67602560D01*
X185052235Y-67651843D01*
X184842191Y-67792191D01*
X184701843Y-68002235D01*
X184652560Y-68250000D01*
X165810000Y-68250000D01*
X165810000Y-67429682D01*
X166046068Y-66749351D01*
X166388527Y-66140000D01*
X178186887Y-66140000D01*
X178298260Y-66699909D01*
X178615423Y-67174577D01*
X179090091Y-67491740D01*
X179508667Y-67575000D01*
X179791333Y-67575000D01*
X180209909Y-67491740D01*
X180684577Y-67174577D01*
X181001740Y-66699909D01*
X181113113Y-66140000D01*
X181028488Y-65714561D01*
X201065000Y-65714561D01*
X201065000Y-66285439D01*
X201283466Y-66812862D01*
X201687138Y-67216534D01*
X202214561Y-67435000D01*
X202785439Y-67435000D01*
X203312862Y-67216534D01*
X203716534Y-66812862D01*
X203935000Y-66285439D01*
X203935000Y-65714561D01*
X203716534Y-65187138D01*
X203312862Y-64783466D01*
X202785439Y-64565000D01*
X202214561Y-64565000D01*
X201687138Y-64783466D01*
X201283466Y-65187138D01*
X201065000Y-65714561D01*
X181028488Y-65714561D01*
X181001740Y-65580091D01*
X180684577Y-65105423D01*
X180209909Y-64788260D01*
X179791333Y-64705000D01*
X179508667Y-64705000D01*
X179090091Y-64788260D01*
X178615423Y-65105423D01*
X178298260Y-65580091D01*
X178186887Y-66140000D01*
X166388527Y-66140000D01*
X166426466Y-66072494D01*
X166920721Y-65473686D01*
X167513201Y-64971871D01*
X168185182Y-64582905D01*
X168915416Y-64319086D01*
X169698151Y-64185800D01*
X169939972Y-64176165D01*
X170110074Y-64210000D01*
X170110074Y-64210000D01*
G37*
X170110074Y-64210000D02*
X210788382Y-64210000D01*
X211593358Y-64281842D01*
X212342277Y-64486723D01*
X213043072Y-64820986D01*
X213673605Y-65274069D01*
X214213934Y-65831645D01*
X214646989Y-66476099D01*
X214959073Y-67187044D01*
X215141640Y-67947493D01*
X215190000Y-68606031D01*
X215190001Y-110262031D01*
X214921435Y-111036019D01*
X214544142Y-111707354D01*
X214053920Y-112301274D01*
X213466275Y-112798994D01*
X212799778Y-113184786D01*
X212657381Y-113236231D01*
X212657381Y-111625000D01*
X196282619Y-111625000D01*
X196282619Y-113590000D01*
X168945964Y-113590000D01*
X168287396Y-113523105D01*
X167690218Y-113335961D01*
X167142875Y-113032563D01*
X166667711Y-112625299D01*
X166284148Y-112130812D01*
X166007852Y-111569304D01*
X165847896Y-110955227D01*
X165810000Y-110462730D01*
X165810000Y-108814041D01*
X192918086Y-108814041D01*
X193157611Y-109320134D01*
X193572577Y-109696041D01*
X193960961Y-109856904D01*
X194183000Y-109734915D01*
X194183000Y-108592000D01*
X194437000Y-108592000D01*
X194437000Y-109734915D01*
X194659039Y-109856904D01*
X195047423Y-109696041D01*
X195462389Y-109320134D01*
X195701914Y-108814041D01*
X195580629Y-108592000D01*
X194437000Y-108592000D01*
X194183000Y-108592000D01*
X193039371Y-108592000D01*
X192918086Y-108814041D01*
X165810000Y-108814041D01*
X165810000Y-108115959D01*
X192918086Y-108115959D01*
X193039371Y-108338000D01*
X194183000Y-108338000D01*
X194183000Y-107195085D01*
X194437000Y-107195085D01*
X194437000Y-108338000D01*
X195580629Y-108338000D01*
X195701914Y-108115959D01*
X195462389Y-107609866D01*
X195047423Y-107233959D01*
X194659039Y-107073096D01*
X194437000Y-107195085D01*
X194183000Y-107195085D01*
X193960961Y-107073096D01*
X193572577Y-107233959D01*
X193157611Y-107609866D01*
X192918086Y-108115959D01*
X165810000Y-108115959D01*
X165810000Y-105927532D01*
X181917073Y-105927532D01*
X182015736Y-106194387D01*
X182625461Y-106420908D01*
X183275460Y-106396856D01*
X183764264Y-106194387D01*
X183862927Y-105927532D01*
X182890000Y-104954605D01*
X181917073Y-105927532D01*
X165810000Y-105927532D01*
X165810000Y-104510461D01*
X181244092Y-104510461D01*
X181268144Y-105160460D01*
X181470613Y-105649264D01*
X181737468Y-105747927D01*
X182710395Y-104775000D01*
X183069605Y-104775000D01*
X184042532Y-105747927D01*
X184309387Y-105649264D01*
X184535908Y-105039539D01*
X184511856Y-104389540D01*
X184309387Y-103900736D01*
X184042532Y-103802073D01*
X183069605Y-104775000D01*
X182710395Y-104775000D01*
X181737468Y-103802073D01*
X181470613Y-103900736D01*
X181244092Y-104510461D01*
X165810000Y-104510461D01*
X165810000Y-103622468D01*
X181917073Y-103622468D01*
X182890000Y-104595395D01*
X183710395Y-103775000D01*
X185042560Y-103775000D01*
X185042560Y-105775000D01*
X185091843Y-106022765D01*
X185232191Y-106232809D01*
X185442235Y-106373157D01*
X185690000Y-106422440D01*
X187690000Y-106422440D01*
X187937765Y-106373157D01*
X188147809Y-106232809D01*
X188288157Y-106022765D01*
X188337440Y-105775000D01*
X188337440Y-103775000D01*
X188288157Y-103527235D01*
X188147809Y-103317191D01*
X187937765Y-103176843D01*
X187690000Y-103127560D01*
X185690000Y-103127560D01*
X185442235Y-103176843D01*
X185232191Y-103317191D01*
X185091843Y-103527235D01*
X185042560Y-103775000D01*
X183710395Y-103775000D01*
X183862927Y-103622468D01*
X183764264Y-103355613D01*
X183154539Y-103129092D01*
X182504540Y-103153144D01*
X182015736Y-103355613D01*
X181917073Y-103622468D01*
X165810000Y-103622468D01*
X165810000Y-100679561D01*
X192875000Y-100679561D01*
X192875000Y-101250439D01*
X193093466Y-101777862D01*
X193497138Y-102181534D01*
X194024561Y-102400000D01*
X194595439Y-102400000D01*
X195122862Y-102181534D01*
X195526534Y-101777862D01*
X195745000Y-101250439D01*
X195745000Y-100679561D01*
X195526534Y-100152138D01*
X195122862Y-99748466D01*
X194595439Y-99530000D01*
X194024561Y-99530000D01*
X193497138Y-99748466D01*
X193093466Y-100152138D01*
X192875000Y-100679561D01*
X165810000Y-100679561D01*
X165810000Y-88300000D01*
X174802560Y-88300000D01*
X174802560Y-90000000D01*
X174851843Y-90247765D01*
X174992191Y-90457809D01*
X175202235Y-90598157D01*
X175450000Y-90647440D01*
X177150000Y-90647440D01*
X177397765Y-90598157D01*
X177607809Y-90457809D01*
X177748157Y-90247765D01*
X177797440Y-90000000D01*
X177797440Y-88300000D01*
X177748157Y-88052235D01*
X177607809Y-87842191D01*
X177397765Y-87701843D01*
X177294292Y-87681261D01*
X177571645Y-87376924D01*
X177741476Y-86966890D01*
X177620155Y-86737000D01*
X176427000Y-86737000D01*
X176427000Y-86757000D01*
X176173000Y-86757000D01*
X176173000Y-86737000D01*
X174979845Y-86737000D01*
X174858524Y-86966890D01*
X175028355Y-87376924D01*
X175305708Y-87681261D01*
X175202235Y-87701843D01*
X174992191Y-87842191D01*
X174851843Y-88052235D01*
X174802560Y-88300000D01*
X165810000Y-88300000D01*
X165810000Y-86253110D01*
X174858524Y-86253110D01*
X174979845Y-86483000D01*
X176173000Y-86483000D01*
X176173000Y-85289181D01*
X176427000Y-85289181D01*
X176427000Y-86483000D01*
X177620155Y-86483000D01*
X177685066Y-86360000D01*
X185226887Y-86360000D01*
X185338260Y-86919909D01*
X185655423Y-87394577D01*
X186007758Y-87630000D01*
X185655423Y-87865423D01*
X185338260Y-88340091D01*
X185226887Y-88900000D01*
X185338260Y-89459909D01*
X185655423Y-89934577D01*
X186007758Y-90170000D01*
X185655423Y-90405423D01*
X185338260Y-90880091D01*
X185226887Y-91440000D01*
X185338260Y-91999909D01*
X185655423Y-92474577D01*
X186130091Y-92791740D01*
X186548667Y-92875000D01*
X186831333Y-92875000D01*
X187249909Y-92791740D01*
X187724577Y-92474577D01*
X188041740Y-91999909D01*
X188153113Y-91440000D01*
X188041740Y-90880091D01*
X187724577Y-90405423D01*
X187372242Y-90170000D01*
X187724577Y-89934577D01*
X188041740Y-89459909D01*
X188153113Y-88900000D01*
X188041740Y-88340091D01*
X187724577Y-87865423D01*
X187372242Y-87630000D01*
X187724577Y-87394577D01*
X188041740Y-86919909D01*
X188153113Y-86360000D01*
X188041740Y-85800091D01*
X187724577Y-85325423D01*
X187618082Y-85254265D01*
X187849698Y-85158327D01*
X188028327Y-84979699D01*
X188125000Y-84746310D01*
X188125000Y-84105750D01*
X187966250Y-83947000D01*
X186817000Y-83947000D01*
X186817000Y-83967000D01*
X186563000Y-83967000D01*
X186563000Y-83947000D01*
X185413750Y-83947000D01*
X185255000Y-84105750D01*
X185255000Y-84746310D01*
X185351673Y-84979699D01*
X185530302Y-85158327D01*
X185761918Y-85254265D01*
X185655423Y-85325423D01*
X185338260Y-85800091D01*
X185226887Y-86360000D01*
X177685066Y-86360000D01*
X177741476Y-86253110D01*
X177571645Y-85843076D01*
X177181358Y-85414817D01*
X176656892Y-85168514D01*
X176427000Y-85289181D01*
X176173000Y-85289181D01*
X175943108Y-85168514D01*
X175418642Y-85414817D01*
X175028355Y-85843076D01*
X174858524Y-86253110D01*
X165810000Y-86253110D01*
X165810000Y-83820000D01*
X192846887Y-83820000D01*
X192958260Y-84379909D01*
X193275423Y-84854577D01*
X193627758Y-85090000D01*
X193275423Y-85325423D01*
X192958260Y-85800091D01*
X192846887Y-86360000D01*
X192958260Y-86919909D01*
X193275423Y-87394577D01*
X193627758Y-87630000D01*
X193275423Y-87865423D01*
X192958260Y-88340091D01*
X192846887Y-88900000D01*
X192958260Y-89459909D01*
X193275423Y-89934577D01*
X193627758Y-90170000D01*
X193275423Y-90405423D01*
X192958260Y-90880091D01*
X192846887Y-91440000D01*
X192958260Y-91999909D01*
X193275423Y-92474577D01*
X193750091Y-92791740D01*
X194168667Y-92875000D01*
X194451333Y-92875000D01*
X194869909Y-92791740D01*
X195344577Y-92474577D01*
X195661740Y-91999909D01*
X195773113Y-91440000D01*
X195661740Y-90880091D01*
X195374363Y-90450000D01*
X197476887Y-90450000D01*
X197588260Y-91009909D01*
X197905423Y-91484577D01*
X198380091Y-91801740D01*
X198798667Y-91885000D01*
X199081333Y-91885000D01*
X199499909Y-91801740D01*
X199974577Y-91484577D01*
X200291740Y-91009909D01*
X200403113Y-90450000D01*
X200346336Y-90164561D01*
X207665000Y-90164561D01*
X207665000Y-90735439D01*
X207883466Y-91262862D01*
X208287138Y-91666534D01*
X208814561Y-91885000D01*
X209385439Y-91885000D01*
X209912862Y-91666534D01*
X210316534Y-91262862D01*
X210535000Y-90735439D01*
X210535000Y-90164561D01*
X210316534Y-89637138D01*
X209912862Y-89233466D01*
X209385439Y-89015000D01*
X208814561Y-89015000D01*
X208287138Y-89233466D01*
X207883466Y-89637138D01*
X207665000Y-90164561D01*
X200346336Y-90164561D01*
X200291740Y-89890091D01*
X199974577Y-89415423D01*
X199499909Y-89098260D01*
X199081333Y-89015000D01*
X198798667Y-89015000D01*
X198380091Y-89098260D01*
X197905423Y-89415423D01*
X197588260Y-89890091D01*
X197476887Y-90450000D01*
X195374363Y-90450000D01*
X195344577Y-90405423D01*
X194992242Y-90170000D01*
X195344577Y-89934577D01*
X195661740Y-89459909D01*
X195773113Y-88900000D01*
X195661740Y-88340091D01*
X195344577Y-87865423D01*
X194992242Y-87630000D01*
X195344577Y-87394577D01*
X195661740Y-86919909D01*
X195773113Y-86360000D01*
X195661740Y-85800091D01*
X195404138Y-85414561D01*
X197665000Y-85414561D01*
X197665000Y-85985439D01*
X197883466Y-86512862D01*
X198287138Y-86916534D01*
X198814561Y-87135000D01*
X199385439Y-87135000D01*
X199912862Y-86916534D01*
X200316534Y-86512862D01*
X200535000Y-85985439D01*
X200535000Y-85700000D01*
X207796887Y-85700000D01*
X207908260Y-86259909D01*
X208225423Y-86734577D01*
X208700091Y-87051740D01*
X209118667Y-87135000D01*
X209401333Y-87135000D01*
X209819909Y-87051740D01*
X210294577Y-86734577D01*
X210611740Y-86259909D01*
X210723113Y-85700000D01*
X210611740Y-85140091D01*
X210294577Y-84665423D01*
X209819909Y-84348260D01*
X209401333Y-84265000D01*
X209118667Y-84265000D01*
X208700091Y-84348260D01*
X208225423Y-84665423D01*
X207908260Y-85140091D01*
X207796887Y-85700000D01*
X200535000Y-85700000D01*
X200535000Y-85414561D01*
X200316534Y-84887138D01*
X199912862Y-84483466D01*
X199385439Y-84265000D01*
X198814561Y-84265000D01*
X198287138Y-84483466D01*
X197883466Y-84887138D01*
X197665000Y-85414561D01*
X195404138Y-85414561D01*
X195344577Y-85325423D01*
X194992242Y-85090000D01*
X195344577Y-84854577D01*
X195661740Y-84379909D01*
X195773113Y-83820000D01*
X195661740Y-83260091D01*
X195344577Y-82785423D01*
X194869909Y-82468260D01*
X194451333Y-82385000D01*
X194168667Y-82385000D01*
X193750091Y-82468260D01*
X193275423Y-82785423D01*
X192958260Y-83260091D01*
X192846887Y-83820000D01*
X165810000Y-83820000D01*
X165810000Y-82893690D01*
X185255000Y-82893690D01*
X185255000Y-83534250D01*
X185413750Y-83693000D01*
X186563000Y-83693000D01*
X186563000Y-82543750D01*
X186817000Y-82543750D01*
X186817000Y-83693000D01*
X187966250Y-83693000D01*
X188125000Y-83534250D01*
X188125000Y-82893690D01*
X188028327Y-82660301D01*
X187849698Y-82481673D01*
X187616309Y-82385000D01*
X186975750Y-82385000D01*
X186817000Y-82543750D01*
X186563000Y-82543750D01*
X186404250Y-82385000D01*
X185763691Y-82385000D01*
X185530302Y-82481673D01*
X185351673Y-82660301D01*
X185255000Y-82893690D01*
X165810000Y-82893690D01*
X165810000Y-76014561D01*
X178215000Y-76014561D01*
X178215000Y-76585439D01*
X178433466Y-77112862D01*
X178837138Y-77516534D01*
X179364561Y-77735000D01*
X179935439Y-77735000D01*
X180462862Y-77516534D01*
X180866534Y-77112862D01*
X181085000Y-76585439D01*
X181085000Y-76160000D01*
X201036887Y-76160000D01*
X201148260Y-76719909D01*
X201465423Y-77194577D01*
X201940091Y-77511740D01*
X202358667Y-77595000D01*
X202641333Y-77595000D01*
X203059909Y-77511740D01*
X203534577Y-77194577D01*
X203851740Y-76719909D01*
X203963113Y-76160000D01*
X203851740Y-75600091D01*
X203534577Y-75125423D01*
X203059909Y-74808260D01*
X202641333Y-74725000D01*
X202358667Y-74725000D01*
X201940091Y-74808260D01*
X201465423Y-75125423D01*
X201148260Y-75600091D01*
X201036887Y-76160000D01*
X181085000Y-76160000D01*
X181085000Y-76014561D01*
X180866534Y-75487138D01*
X180462862Y-75083466D01*
X179935439Y-74865000D01*
X179364561Y-74865000D01*
X178837138Y-75083466D01*
X178433466Y-75487138D01*
X178215000Y-76014561D01*
X165810000Y-76014561D01*
X165810000Y-68250000D01*
X184652560Y-68250000D01*
X184652560Y-70050000D01*
X184701843Y-70297765D01*
X184842191Y-70507809D01*
X185052235Y-70648157D01*
X185300000Y-70697440D01*
X187100000Y-70697440D01*
X187347765Y-70648157D01*
X187557809Y-70507809D01*
X187698157Y-70297765D01*
X187701275Y-70282092D01*
X187870493Y-70451310D01*
X188434670Y-70685000D01*
X189045330Y-70685000D01*
X189609507Y-70451310D01*
X190041310Y-70019507D01*
X190262399Y-69485750D01*
X192565000Y-69485750D01*
X192565000Y-70226310D01*
X192661673Y-70459699D01*
X192840302Y-70638327D01*
X193073691Y-70735000D01*
X193814250Y-70735000D01*
X193973000Y-70576250D01*
X193973000Y-69327000D01*
X192723750Y-69327000D01*
X192565000Y-69485750D01*
X190262399Y-69485750D01*
X190275000Y-69455330D01*
X190275000Y-68844670D01*
X190041310Y-68280493D01*
X189934507Y-68173690D01*
X192565000Y-68173690D01*
X192565000Y-68914250D01*
X192723750Y-69073000D01*
X193973000Y-69073000D01*
X193973000Y-67823750D01*
X194227000Y-67823750D01*
X194227000Y-69073000D01*
X194247000Y-69073000D01*
X194247000Y-69327000D01*
X194227000Y-69327000D01*
X194227000Y-70576250D01*
X194385750Y-70735000D01*
X195126309Y-70735000D01*
X195359698Y-70638327D01*
X195538327Y-70459699D01*
X195594139Y-70324956D01*
X195770493Y-70501310D01*
X196334670Y-70735000D01*
X196945330Y-70735000D01*
X197509507Y-70501310D01*
X197941310Y-70069507D01*
X198175000Y-69505330D01*
X198175000Y-68894670D01*
X197941310Y-68330493D01*
X197509507Y-67898690D01*
X196945330Y-67665000D01*
X196334670Y-67665000D01*
X195770493Y-67898690D01*
X195594139Y-68075044D01*
X195538327Y-67940301D01*
X195359698Y-67761673D01*
X195126309Y-67665000D01*
X194385750Y-67665000D01*
X194227000Y-67823750D01*
X193973000Y-67823750D01*
X193814250Y-67665000D01*
X193073691Y-67665000D01*
X192840302Y-67761673D01*
X192661673Y-67940301D01*
X192565000Y-68173690D01*
X189934507Y-68173690D01*
X189609507Y-67848690D01*
X189045330Y-67615000D01*
X188434670Y-67615000D01*
X187870493Y-67848690D01*
X187701275Y-68017908D01*
X187698157Y-68002235D01*
X187557809Y-67792191D01*
X187347765Y-67651843D01*
X187100000Y-67602560D01*
X185300000Y-67602560D01*
X185052235Y-67651843D01*
X184842191Y-67792191D01*
X184701843Y-68002235D01*
X184652560Y-68250000D01*
X165810000Y-68250000D01*
X165810000Y-67429682D01*
X166046068Y-66749351D01*
X166388527Y-66140000D01*
X178186887Y-66140000D01*
X178298260Y-66699909D01*
X178615423Y-67174577D01*
X179090091Y-67491740D01*
X179508667Y-67575000D01*
X179791333Y-67575000D01*
X180209909Y-67491740D01*
X180684577Y-67174577D01*
X181001740Y-66699909D01*
X181113113Y-66140000D01*
X181028488Y-65714561D01*
X201065000Y-65714561D01*
X201065000Y-66285439D01*
X201283466Y-66812862D01*
X201687138Y-67216534D01*
X202214561Y-67435000D01*
X202785439Y-67435000D01*
X203312862Y-67216534D01*
X203716534Y-66812862D01*
X203935000Y-66285439D01*
X203935000Y-65714561D01*
X203716534Y-65187138D01*
X203312862Y-64783466D01*
X202785439Y-64565000D01*
X202214561Y-64565000D01*
X201687138Y-64783466D01*
X201283466Y-65187138D01*
X201065000Y-65714561D01*
X181028488Y-65714561D01*
X181001740Y-65580091D01*
X180684577Y-65105423D01*
X180209909Y-64788260D01*
X179791333Y-64705000D01*
X179508667Y-64705000D01*
X179090091Y-64788260D01*
X178615423Y-65105423D01*
X178298260Y-65580091D01*
X178186887Y-66140000D01*
X166388527Y-66140000D01*
X166426466Y-66072494D01*
X166920721Y-65473686D01*
X167513201Y-64971871D01*
X168185182Y-64582905D01*
X168915416Y-64319086D01*
X169698151Y-64185800D01*
X169939972Y-64176165D01*
X170110074Y-64210000D01*
G04 #@! TD*
M02*
