G04 #@! TF.GenerationSoftware,KiCad,Pcbnew,(5.0.2)-1*
G04 #@! TF.CreationDate,2019-03-28T21:57:09+05:00*
G04 #@! TF.ProjectId,LM555Blinky,4c4d3535-3542-46c6-996e-6b792e6b6963,rev?*
G04 #@! TF.SameCoordinates,Original*
G04 #@! TF.FileFunction,Legend,Top*
G04 #@! TF.FilePolarity,Positive*
%FSLAX46Y46*%
G04 Gerber Fmt 4.6, Leading zero omitted, Abs format (unit mm)*
G04 Created by KiCad (PCBNEW (5.0.2)-1) date 3/28/2019 9:57:09 PM*
%MOMM*%
%LPD*%
G01*
G04 APERTURE LIST*
%ADD10C,0.150000*%
%ADD11C,0.120000*%
G04 APERTURE END LIST*
D10*
X210820000Y-63500000D02*
G75*
G02X215900000Y-68580000I0J-5080000D01*
G01*
X165100000Y-67310000D02*
G75*
G02X170028324Y-63462081I4928324J-1232081D01*
G01*
X215865426Y-110481356D02*
G75*
G02X210820000Y-114300000I-4893750J1223437D01*
G01*
X168910000Y-114300000D02*
G75*
G02X165100000Y-110490000I0J3810000D01*
G01*
X165100000Y-110490000D02*
X165100000Y-67310000D01*
X168910000Y-114300000D02*
X210820000Y-114300000D01*
X215900000Y-67310000D02*
X215900000Y-110490000D01*
X170180000Y-63500000D02*
X210820000Y-63500000D01*
D11*
G04 #@! TO.C,C2*
X195730000Y-102695000D02*
X192890000Y-102695000D01*
X192890000Y-102695000D02*
X192890000Y-106735000D01*
X192890000Y-106735000D02*
X195730000Y-106735000D01*
X195730000Y-106735000D02*
X195730000Y-102695000D01*
X194310000Y-102005000D02*
X194310000Y-102695000D01*
X194310000Y-107425000D02*
X194310000Y-106735000D01*
G04 #@! TO.C,C1*
X189910000Y-104775000D02*
G75*
G03X189910000Y-104775000I-5120000J0D01*
G01*
X184790000Y-109855000D02*
X184790000Y-99695000D01*
X184750000Y-109855000D02*
X184750000Y-99695000D01*
X184710000Y-109855000D02*
X184710000Y-99695000D01*
X184670000Y-109854000D02*
X184670000Y-99696000D01*
X184630000Y-109853000D02*
X184630000Y-99697000D01*
X184590000Y-109852000D02*
X184590000Y-99698000D01*
X184550000Y-109850000D02*
X184550000Y-99700000D01*
X184510000Y-109848000D02*
X184510000Y-99702000D01*
X184470000Y-109845000D02*
X184470000Y-99705000D01*
X184430000Y-109843000D02*
X184430000Y-99707000D01*
X184390000Y-109840000D02*
X184390000Y-99710000D01*
X184350000Y-109837000D02*
X184350000Y-99713000D01*
X184310000Y-109833000D02*
X184310000Y-99717000D01*
X184270000Y-109829000D02*
X184270000Y-99721000D01*
X184230000Y-109825000D02*
X184230000Y-99725000D01*
X184190000Y-109820000D02*
X184190000Y-99730000D01*
X184150000Y-109815000D02*
X184150000Y-99735000D01*
X184110000Y-109810000D02*
X184110000Y-106016000D01*
X184110000Y-103534000D02*
X184110000Y-99740000D01*
X184069000Y-109805000D02*
X184069000Y-106016000D01*
X184069000Y-103534000D02*
X184069000Y-99745000D01*
X184029000Y-109799000D02*
X184029000Y-106016000D01*
X184029000Y-103534000D02*
X184029000Y-99751000D01*
X183989000Y-109793000D02*
X183989000Y-106016000D01*
X183989000Y-103534000D02*
X183989000Y-99757000D01*
X183949000Y-109786000D02*
X183949000Y-106016000D01*
X183949000Y-103534000D02*
X183949000Y-99764000D01*
X183909000Y-109779000D02*
X183909000Y-106016000D01*
X183909000Y-103534000D02*
X183909000Y-99771000D01*
X183869000Y-109772000D02*
X183869000Y-106016000D01*
X183869000Y-103534000D02*
X183869000Y-99778000D01*
X183829000Y-109765000D02*
X183829000Y-106016000D01*
X183829000Y-103534000D02*
X183829000Y-99785000D01*
X183789000Y-109757000D02*
X183789000Y-106016000D01*
X183789000Y-103534000D02*
X183789000Y-99793000D01*
X183749000Y-109749000D02*
X183749000Y-106016000D01*
X183749000Y-103534000D02*
X183749000Y-99801000D01*
X183709000Y-109740000D02*
X183709000Y-106016000D01*
X183709000Y-103534000D02*
X183709000Y-99810000D01*
X183669000Y-109731000D02*
X183669000Y-106016000D01*
X183669000Y-103534000D02*
X183669000Y-99819000D01*
X183629000Y-109722000D02*
X183629000Y-106016000D01*
X183629000Y-103534000D02*
X183629000Y-99828000D01*
X183589000Y-109713000D02*
X183589000Y-106016000D01*
X183589000Y-103534000D02*
X183589000Y-99837000D01*
X183549000Y-109703000D02*
X183549000Y-106016000D01*
X183549000Y-103534000D02*
X183549000Y-99847000D01*
X183509000Y-109693000D02*
X183509000Y-106016000D01*
X183509000Y-103534000D02*
X183509000Y-99857000D01*
X183469000Y-109682000D02*
X183469000Y-106016000D01*
X183469000Y-103534000D02*
X183469000Y-99868000D01*
X183429000Y-109672000D02*
X183429000Y-106016000D01*
X183429000Y-103534000D02*
X183429000Y-99878000D01*
X183389000Y-109660000D02*
X183389000Y-106016000D01*
X183389000Y-103534000D02*
X183389000Y-99890000D01*
X183349000Y-109649000D02*
X183349000Y-106016000D01*
X183349000Y-103534000D02*
X183349000Y-99901000D01*
X183309000Y-109637000D02*
X183309000Y-106016000D01*
X183309000Y-103534000D02*
X183309000Y-99913000D01*
X183269000Y-109625000D02*
X183269000Y-106016000D01*
X183269000Y-103534000D02*
X183269000Y-99925000D01*
X183229000Y-109612000D02*
X183229000Y-106016000D01*
X183229000Y-103534000D02*
X183229000Y-99938000D01*
X183189000Y-109599000D02*
X183189000Y-106016000D01*
X183189000Y-103534000D02*
X183189000Y-99951000D01*
X183149000Y-109586000D02*
X183149000Y-106016000D01*
X183149000Y-103534000D02*
X183149000Y-99964000D01*
X183109000Y-109572000D02*
X183109000Y-106016000D01*
X183109000Y-103534000D02*
X183109000Y-99978000D01*
X183069000Y-109558000D02*
X183069000Y-106016000D01*
X183069000Y-103534000D02*
X183069000Y-99992000D01*
X183029000Y-109543000D02*
X183029000Y-106016000D01*
X183029000Y-103534000D02*
X183029000Y-100007000D01*
X182989000Y-109529000D02*
X182989000Y-106016000D01*
X182989000Y-103534000D02*
X182989000Y-100021000D01*
X182949000Y-109513000D02*
X182949000Y-106016000D01*
X182949000Y-103534000D02*
X182949000Y-100037000D01*
X182909000Y-109498000D02*
X182909000Y-106016000D01*
X182909000Y-103534000D02*
X182909000Y-100052000D01*
X182869000Y-109482000D02*
X182869000Y-106016000D01*
X182869000Y-103534000D02*
X182869000Y-100068000D01*
X182829000Y-109465000D02*
X182829000Y-106016000D01*
X182829000Y-103534000D02*
X182829000Y-100085000D01*
X182789000Y-109449000D02*
X182789000Y-106016000D01*
X182789000Y-103534000D02*
X182789000Y-100101000D01*
X182749000Y-109432000D02*
X182749000Y-106016000D01*
X182749000Y-103534000D02*
X182749000Y-100118000D01*
X182709000Y-109414000D02*
X182709000Y-106016000D01*
X182709000Y-103534000D02*
X182709000Y-100136000D01*
X182669000Y-109396000D02*
X182669000Y-106016000D01*
X182669000Y-103534000D02*
X182669000Y-100154000D01*
X182629000Y-109378000D02*
X182629000Y-106016000D01*
X182629000Y-103534000D02*
X182629000Y-100172000D01*
X182589000Y-109359000D02*
X182589000Y-106016000D01*
X182589000Y-103534000D02*
X182589000Y-100191000D01*
X182549000Y-109339000D02*
X182549000Y-106016000D01*
X182549000Y-103534000D02*
X182549000Y-100211000D01*
X182509000Y-109320000D02*
X182509000Y-106016000D01*
X182509000Y-103534000D02*
X182509000Y-100230000D01*
X182469000Y-109300000D02*
X182469000Y-106016000D01*
X182469000Y-103534000D02*
X182469000Y-100250000D01*
X182429000Y-109279000D02*
X182429000Y-106016000D01*
X182429000Y-103534000D02*
X182429000Y-100271000D01*
X182389000Y-109258000D02*
X182389000Y-106016000D01*
X182389000Y-103534000D02*
X182389000Y-100292000D01*
X182349000Y-109237000D02*
X182349000Y-106016000D01*
X182349000Y-103534000D02*
X182349000Y-100313000D01*
X182309000Y-109215000D02*
X182309000Y-106016000D01*
X182309000Y-103534000D02*
X182309000Y-100335000D01*
X182269000Y-109192000D02*
X182269000Y-106016000D01*
X182269000Y-103534000D02*
X182269000Y-100358000D01*
X182229000Y-109170000D02*
X182229000Y-106016000D01*
X182229000Y-103534000D02*
X182229000Y-100380000D01*
X182189000Y-109146000D02*
X182189000Y-106016000D01*
X182189000Y-103534000D02*
X182189000Y-100404000D01*
X182149000Y-109122000D02*
X182149000Y-106016000D01*
X182149000Y-103534000D02*
X182149000Y-100428000D01*
X182109000Y-109098000D02*
X182109000Y-106016000D01*
X182109000Y-103534000D02*
X182109000Y-100452000D01*
X182069000Y-109073000D02*
X182069000Y-106016000D01*
X182069000Y-103534000D02*
X182069000Y-100477000D01*
X182029000Y-109048000D02*
X182029000Y-106016000D01*
X182029000Y-103534000D02*
X182029000Y-100502000D01*
X181989000Y-109022000D02*
X181989000Y-106016000D01*
X181989000Y-103534000D02*
X181989000Y-100528000D01*
X181949000Y-108996000D02*
X181949000Y-106016000D01*
X181949000Y-103534000D02*
X181949000Y-100554000D01*
X181909000Y-108969000D02*
X181909000Y-106016000D01*
X181909000Y-103534000D02*
X181909000Y-100581000D01*
X181869000Y-108941000D02*
X181869000Y-106016000D01*
X181869000Y-103534000D02*
X181869000Y-100609000D01*
X181829000Y-108913000D02*
X181829000Y-106016000D01*
X181829000Y-103534000D02*
X181829000Y-100637000D01*
X181789000Y-108885000D02*
X181789000Y-106016000D01*
X181789000Y-103534000D02*
X181789000Y-100665000D01*
X181749000Y-108855000D02*
X181749000Y-106016000D01*
X181749000Y-103534000D02*
X181749000Y-100695000D01*
X181709000Y-108825000D02*
X181709000Y-106016000D01*
X181709000Y-103534000D02*
X181709000Y-100725000D01*
X181669000Y-108795000D02*
X181669000Y-106016000D01*
X181669000Y-103534000D02*
X181669000Y-100755000D01*
X181629000Y-108764000D02*
X181629000Y-100786000D01*
X181589000Y-108732000D02*
X181589000Y-100818000D01*
X181549000Y-108700000D02*
X181549000Y-100850000D01*
X181509000Y-108667000D02*
X181509000Y-100883000D01*
X181469000Y-108633000D02*
X181469000Y-100917000D01*
X181429000Y-108599000D02*
X181429000Y-100951000D01*
X181389000Y-108564000D02*
X181389000Y-100986000D01*
X181349000Y-108528000D02*
X181349000Y-101022000D01*
X181309000Y-108491000D02*
X181309000Y-101059000D01*
X181269000Y-108454000D02*
X181269000Y-101096000D01*
X181229000Y-108415000D02*
X181229000Y-101135000D01*
X181189000Y-108376000D02*
X181189000Y-101174000D01*
X181149000Y-108336000D02*
X181149000Y-101214000D01*
X181109000Y-108295000D02*
X181109000Y-101255000D01*
X181069000Y-108253000D02*
X181069000Y-101297000D01*
X181029000Y-108211000D02*
X181029000Y-101339000D01*
X180989000Y-108167000D02*
X180989000Y-101383000D01*
X180949000Y-108122000D02*
X180949000Y-101428000D01*
X180909000Y-108076000D02*
X180909000Y-101474000D01*
X180869000Y-108029000D02*
X180869000Y-101521000D01*
X180829000Y-107981000D02*
X180829000Y-101569000D01*
X180789000Y-107931000D02*
X180789000Y-101619000D01*
X180749000Y-107881000D02*
X180749000Y-101669000D01*
X180709000Y-107829000D02*
X180709000Y-101721000D01*
X180669000Y-107775000D02*
X180669000Y-101775000D01*
X180629000Y-107720000D02*
X180629000Y-101830000D01*
X180589000Y-107664000D02*
X180589000Y-101886000D01*
X180549000Y-107605000D02*
X180549000Y-101945000D01*
X180509000Y-107545000D02*
X180509000Y-102005000D01*
X180469000Y-107484000D02*
X180469000Y-102066000D01*
X180429000Y-107420000D02*
X180429000Y-102130000D01*
X180389000Y-107354000D02*
X180389000Y-102196000D01*
X180349000Y-107285000D02*
X180349000Y-102265000D01*
X180309000Y-107214000D02*
X180309000Y-102336000D01*
X180269000Y-107140000D02*
X180269000Y-102410000D01*
X180229000Y-107064000D02*
X180229000Y-102486000D01*
X180189000Y-106984000D02*
X180189000Y-102566000D01*
X180149000Y-106900000D02*
X180149000Y-102650000D01*
X180109000Y-106812000D02*
X180109000Y-102738000D01*
X180069000Y-106719000D02*
X180069000Y-102831000D01*
X180029000Y-106621000D02*
X180029000Y-102929000D01*
X179989000Y-106517000D02*
X179989000Y-103033000D01*
X179949000Y-106405000D02*
X179949000Y-103145000D01*
X179909000Y-106285000D02*
X179909000Y-103265000D01*
X179869000Y-106153000D02*
X179869000Y-103397000D01*
X179829000Y-106005000D02*
X179829000Y-103545000D01*
X179789000Y-105837000D02*
X179789000Y-103713000D01*
X179749000Y-105637000D02*
X179749000Y-103913000D01*
X179709000Y-105374000D02*
X179709000Y-104176000D01*
X190269646Y-107650000D02*
X189269646Y-107650000D01*
X189769646Y-108150000D02*
X189769646Y-107150000D01*
G04 #@! TO.C,D2*
X192810000Y-67655000D02*
X192810000Y-70745000D01*
X197870000Y-69200000D02*
G75*
G03X197870000Y-69200000I-2500000J0D01*
G01*
X198360000Y-69199538D02*
G75*
G02X192810000Y-70744830I-2990000J-462D01*
G01*
X198360000Y-69200462D02*
G75*
G03X192810000Y-67655170I-2990000J462D01*
G01*
G04 #@! TO.C,D1*
X190460000Y-69150462D02*
G75*
G03X184910000Y-67605170I-2990000J462D01*
G01*
X190460000Y-69149538D02*
G75*
G02X184910000Y-70694830I-2990000J-462D01*
G01*
X189970000Y-69150000D02*
G75*
G03X189970000Y-69150000I-2500000J0D01*
G01*
X184910000Y-67605000D02*
X184910000Y-70695000D01*
G04 #@! TO.C,U1*
X191500000Y-82490000D02*
G75*
G02X189500000Y-82490000I-1000000J0D01*
G01*
X189500000Y-82490000D02*
X187850000Y-82490000D01*
X187850000Y-82490000D02*
X187850000Y-92770000D01*
X187850000Y-92770000D02*
X193150000Y-92770000D01*
X193150000Y-92770000D02*
X193150000Y-82490000D01*
X193150000Y-82490000D02*
X191500000Y-82490000D01*
G04 #@! TO.C,R4*
X179650000Y-67180000D02*
X179650000Y-67950000D01*
X179650000Y-75260000D02*
X179650000Y-74490000D01*
X178280000Y-67950000D02*
X178280000Y-74490000D01*
X181020000Y-67950000D02*
X178280000Y-67950000D01*
X181020000Y-74490000D02*
X181020000Y-67950000D01*
X178280000Y-74490000D02*
X181020000Y-74490000D01*
G04 #@! TO.C,R3*
X207290000Y-91820000D02*
X207290000Y-89080000D01*
X207290000Y-89080000D02*
X200750000Y-89080000D01*
X200750000Y-89080000D02*
X200750000Y-91820000D01*
X200750000Y-91820000D02*
X207290000Y-91820000D01*
X208060000Y-90450000D02*
X207290000Y-90450000D01*
X199980000Y-90450000D02*
X200750000Y-90450000D01*
G04 #@! TO.C,R2*
X208220000Y-85700000D02*
X207450000Y-85700000D01*
X200140000Y-85700000D02*
X200910000Y-85700000D01*
X207450000Y-84330000D02*
X200910000Y-84330000D01*
X207450000Y-87070000D02*
X207450000Y-84330000D01*
X200910000Y-87070000D02*
X207450000Y-87070000D01*
X200910000Y-84330000D02*
X200910000Y-87070000D01*
G04 #@! TO.C,R1*
X203870000Y-67810000D02*
X201130000Y-67810000D01*
X201130000Y-67810000D02*
X201130000Y-74350000D01*
X201130000Y-74350000D02*
X203870000Y-74350000D01*
X203870000Y-74350000D02*
X203870000Y-67810000D01*
X202500000Y-67040000D02*
X202500000Y-67810000D01*
X202500000Y-75120000D02*
X202500000Y-74350000D01*
G04 #@! TO.C,J1*
X177630000Y-85280000D02*
X174970000Y-85280000D01*
X177630000Y-87880000D02*
X177630000Y-85280000D01*
X174970000Y-87880000D02*
X174970000Y-85280000D01*
X177630000Y-87880000D02*
X174970000Y-87880000D01*
X177630000Y-89150000D02*
X177630000Y-90480000D01*
X177630000Y-90480000D02*
X176300000Y-90480000D01*
G04 #@! TD*
G04 #@! TO.C,C2*
D10*
X194143333Y-111482142D02*
X194095714Y-111529761D01*
X193952857Y-111577380D01*
X193857619Y-111577380D01*
X193714761Y-111529761D01*
X193619523Y-111434523D01*
X193571904Y-111339285D01*
X193524285Y-111148809D01*
X193524285Y-111005952D01*
X193571904Y-110815476D01*
X193619523Y-110720238D01*
X193714761Y-110625000D01*
X193857619Y-110577380D01*
X193952857Y-110577380D01*
X194095714Y-110625000D01*
X194143333Y-110672619D01*
X194524285Y-110672619D02*
X194571904Y-110625000D01*
X194667142Y-110577380D01*
X194905238Y-110577380D01*
X195000476Y-110625000D01*
X195048095Y-110672619D01*
X195095714Y-110767857D01*
X195095714Y-110863095D01*
X195048095Y-111005952D01*
X194476666Y-111577380D01*
X195095714Y-111577380D01*
G04 #@! TO.C,C1*
X184618333Y-111482142D02*
X184570714Y-111529761D01*
X184427857Y-111577380D01*
X184332619Y-111577380D01*
X184189761Y-111529761D01*
X184094523Y-111434523D01*
X184046904Y-111339285D01*
X183999285Y-111148809D01*
X183999285Y-111005952D01*
X184046904Y-110815476D01*
X184094523Y-110720238D01*
X184189761Y-110625000D01*
X184332619Y-110577380D01*
X184427857Y-110577380D01*
X184570714Y-110625000D01*
X184618333Y-110672619D01*
X185570714Y-111577380D02*
X184999285Y-111577380D01*
X185285000Y-111577380D02*
X185285000Y-110577380D01*
X185189761Y-110720238D01*
X185094523Y-110815476D01*
X184999285Y-110863095D01*
G04 #@! TO.C,D2*
X194631904Y-69652380D02*
X194631904Y-68652380D01*
X194870000Y-68652380D01*
X195012857Y-68700000D01*
X195108095Y-68795238D01*
X195155714Y-68890476D01*
X195203333Y-69080952D01*
X195203333Y-69223809D01*
X195155714Y-69414285D01*
X195108095Y-69509523D01*
X195012857Y-69604761D01*
X194870000Y-69652380D01*
X194631904Y-69652380D01*
X195584285Y-68747619D02*
X195631904Y-68700000D01*
X195727142Y-68652380D01*
X195965238Y-68652380D01*
X196060476Y-68700000D01*
X196108095Y-68747619D01*
X196155714Y-68842857D01*
X196155714Y-68938095D01*
X196108095Y-69080952D01*
X195536666Y-69652380D01*
X196155714Y-69652380D01*
G04 #@! TO.C,D1*
X186731904Y-69602380D02*
X186731904Y-68602380D01*
X186970000Y-68602380D01*
X187112857Y-68650000D01*
X187208095Y-68745238D01*
X187255714Y-68840476D01*
X187303333Y-69030952D01*
X187303333Y-69173809D01*
X187255714Y-69364285D01*
X187208095Y-69459523D01*
X187112857Y-69554761D01*
X186970000Y-69602380D01*
X186731904Y-69602380D01*
X188255714Y-69602380D02*
X187684285Y-69602380D01*
X187970000Y-69602380D02*
X187970000Y-68602380D01*
X187874761Y-68745238D01*
X187779523Y-68840476D01*
X187684285Y-68888095D01*
G04 #@! TO.C,U1*
X189738095Y-80942380D02*
X189738095Y-81751904D01*
X189785714Y-81847142D01*
X189833333Y-81894761D01*
X189928571Y-81942380D01*
X190119047Y-81942380D01*
X190214285Y-81894761D01*
X190261904Y-81847142D01*
X190309523Y-81751904D01*
X190309523Y-80942380D01*
X191309523Y-81942380D02*
X190738095Y-81942380D01*
X191023809Y-81942380D02*
X191023809Y-80942380D01*
X190928571Y-81085238D01*
X190833333Y-81180476D01*
X190738095Y-81228095D01*
G04 #@! TO.C,R4*
X180102380Y-71386666D02*
X179626190Y-71720000D01*
X180102380Y-71958095D02*
X179102380Y-71958095D01*
X179102380Y-71577142D01*
X179150000Y-71481904D01*
X179197619Y-71434285D01*
X179292857Y-71386666D01*
X179435714Y-71386666D01*
X179530952Y-71434285D01*
X179578571Y-71481904D01*
X179626190Y-71577142D01*
X179626190Y-71958095D01*
X179435714Y-70529523D02*
X180102380Y-70529523D01*
X179054761Y-70767619D02*
X179769047Y-71005714D01*
X179769047Y-70386666D01*
G04 #@! TO.C,R3*
X203853333Y-90902380D02*
X203520000Y-90426190D01*
X203281904Y-90902380D02*
X203281904Y-89902380D01*
X203662857Y-89902380D01*
X203758095Y-89950000D01*
X203805714Y-89997619D01*
X203853333Y-90092857D01*
X203853333Y-90235714D01*
X203805714Y-90330952D01*
X203758095Y-90378571D01*
X203662857Y-90426190D01*
X203281904Y-90426190D01*
X204186666Y-89902380D02*
X204805714Y-89902380D01*
X204472380Y-90283333D01*
X204615238Y-90283333D01*
X204710476Y-90330952D01*
X204758095Y-90378571D01*
X204805714Y-90473809D01*
X204805714Y-90711904D01*
X204758095Y-90807142D01*
X204710476Y-90854761D01*
X204615238Y-90902380D01*
X204329523Y-90902380D01*
X204234285Y-90854761D01*
X204186666Y-90807142D01*
G04 #@! TO.C,R2*
X204013333Y-86152380D02*
X203680000Y-85676190D01*
X203441904Y-86152380D02*
X203441904Y-85152380D01*
X203822857Y-85152380D01*
X203918095Y-85200000D01*
X203965714Y-85247619D01*
X204013333Y-85342857D01*
X204013333Y-85485714D01*
X203965714Y-85580952D01*
X203918095Y-85628571D01*
X203822857Y-85676190D01*
X203441904Y-85676190D01*
X204394285Y-85247619D02*
X204441904Y-85200000D01*
X204537142Y-85152380D01*
X204775238Y-85152380D01*
X204870476Y-85200000D01*
X204918095Y-85247619D01*
X204965714Y-85342857D01*
X204965714Y-85438095D01*
X204918095Y-85580952D01*
X204346666Y-86152380D01*
X204965714Y-86152380D01*
G04 #@! TO.C,R1*
X202952380Y-71246666D02*
X202476190Y-71580000D01*
X202952380Y-71818095D02*
X201952380Y-71818095D01*
X201952380Y-71437142D01*
X202000000Y-71341904D01*
X202047619Y-71294285D01*
X202142857Y-71246666D01*
X202285714Y-71246666D01*
X202380952Y-71294285D01*
X202428571Y-71341904D01*
X202476190Y-71437142D01*
X202476190Y-71818095D01*
X202952380Y-70294285D02*
X202952380Y-70865714D01*
X202952380Y-70580000D02*
X201952380Y-70580000D01*
X202095238Y-70675238D01*
X202190476Y-70770476D01*
X202238095Y-70865714D01*
G04 #@! TO.C,J1*
X175966666Y-90932380D02*
X175966666Y-91646666D01*
X175919047Y-91789523D01*
X175823809Y-91884761D01*
X175680952Y-91932380D01*
X175585714Y-91932380D01*
X176966666Y-91932380D02*
X176395238Y-91932380D01*
X176680952Y-91932380D02*
X176680952Y-90932380D01*
X176585714Y-91075238D01*
X176490476Y-91170476D01*
X176395238Y-91218095D01*
G04 #@! TD*
M02*
