M48
;DRILL file {KiCad (5.0.2)-1} date 3/28/2019 9:57:15 PM
;FORMAT={-:-/ absolute / inch / decimal}
FMAT,2
INCH,TZ
T1C0.0315
T2C0.0354
T3C0.0394
%
G90
G05
T1
X7.0728Y-2.6039
X7.0728Y-3.0039
X7.9724Y-2.5984
X7.9724Y-2.9984
X7.65Y-3.975
X7.65Y-4.2703
X7.35Y-3.3
X7.35Y-3.4
X7.35Y-3.5
X7.35Y-3.6
X7.65Y-3.3
X7.65Y-3.4
X7.65Y-3.5
X7.65Y-3.6
X7.8323Y-3.561
X8.2323Y-3.561
X7.8386Y-3.374
X8.2386Y-3.374
T2
X7.3307Y-2.7224
X7.4307Y-2.7224
X7.6417Y-2.7244
X7.7417Y-2.7244
T3
X7.2004Y-4.125
X7.35Y-4.125
X6.9409Y-3.4098
X6.9409Y-3.5098
T0
M30
